<svg width="68" height="81" viewBox="0 0 68 81" fill="none" xmlns="http://www.w3.org/2000/svg">
<path d="M31.4471 21.7451C26.5181 18.63 30.8123 11.0549 36.0735 14.0102C17.3332 2.40614 45.4891 19.8536 14.605 0.714194C14.3295 0.543463 13.9984 0.486827 13.6818 0.556312C13.3646 0.63754 13.0907 0.837519 12.9168 1.11492L4.41705 15.2245C4.25452 15.4974 4.20543 15.8232 4.28032 16.1319C4.3552 16.4407 4.5481 16.7078 4.81763 16.8759L33.9612 35.2833C34.094 35.3698 34.2427 35.429 34.3986 35.4575C34.5545 35.486 34.7145 35.4832 34.8693 35.4493C35.0241 35.4154 35.1706 35.351 35.3003 35.2599C35.43 35.1689 35.5403 35.053 35.6248 34.9189C35.9041 34.4808 40.4723 27.4208 40.5548 27.257L31.4471 21.7451Z" fill="#9DCC6B"/>
<path d="M31.4498 21.745C26.5219 18.634 30.8121 11.0555 36.0761 14.0102C17.3314 2.38556 40.7175 16.896 19.66 3.84766C18.3997 7.76404 12.793 9.16135 9.86083 6.20259L4.42096 15.2244C4.25842 15.4973 4.20934 15.8231 4.28422 16.1319C4.35911 16.4406 4.55201 16.7077 4.82154 16.8758L33.9638 35.2832C34.0967 35.3696 34.2454 35.4287 34.4012 35.4571C34.5571 35.4855 34.7171 35.4827 34.8719 35.4488C35.0266 35.4149 35.1731 35.3506 35.3028 35.2596C35.4326 35.1686 35.5429 35.0528 35.6275 34.9188L40.5566 27.2575L31.4498 21.745Z" fill="#9DCC6B"/>
<path d="M41.2081 26.2666L40.5647 27.2501L31.4578 21.7376C28.5943 20.1323 28.6109 15.5907 31.4578 13.9906L31.4699 14.0028C32.1641 13.5769 32.9626 13.3516 33.777 13.3516C34.5914 13.3516 35.39 13.5769 36.0842 14.0028L36.1084 14.015C37.4597 14.8609 36.1976 16.9124 34.8333 16.079C33.3438 15.089 31.3126 16.6195 31.7734 18.3255C31.8319 18.6009 31.9461 18.8615 32.109 19.0912C32.2719 19.3209 32.48 19.5148 32.7206 19.6612L40.8197 24.5668C40.959 24.651 41.0798 24.7623 41.1751 24.8942C41.2704 25.026 41.3381 25.1757 41.3744 25.3343C41.4106 25.4929 41.4146 25.6572 41.386 25.8173C41.3574 25.9775 41.2969 26.1303 41.2081 26.2666Z" fill="#84B749"/>
<path d="M58.8201 7.78091L47.7945 1.58815C45.508 0.290774 42.8634 -0.232821 40.2551 0.0954345C37.6467 0.42369 35.2143 1.58621 33.3206 3.40966L27.7344 8.83726C27.8572 8.91331 36.2019 14.0876 36.0764 14.01C30.8198 11.0548 26.5186 18.6278 31.4502 21.7448L42.9005 28.6781C48.5042 32.0364 52.6697 27.9224 57.241 25.1575C57.1275 24.8758 57.0697 24.5749 57.0709 24.2712V10.9137C57.0747 10.2894 57.317 9.69023 57.7482 9.23877C58.1793 8.78731 58.7667 8.51772 59.3902 8.4852C59.2987 8.18537 59.0943 7.93282 58.8201 7.78091Z" fill="#F6CCAF"/>
<path d="M59.3908 8.48567C58.548 8.5506 57.9158 8.93709 57.5452 9.49336L47.7945 4.01678C45.5081 2.71938 42.8635 2.19576 40.2551 2.52399C37.6467 2.85222 35.2143 4.01471 33.3206 5.83813L29.2522 9.7844L27.7344 8.83726L33.3206 3.40966C35.2143 1.58621 37.6467 0.42369 40.2551 0.0954344C42.8634 -0.232821 45.508 0.290774 47.7945 1.58815L58.8201 7.78091C59.0946 7.93281 59.2993 8.18555 59.3908 8.48567Z" fill="#F3BD98"/>
<path d="M42.4993 71.6246H18.2143C18.0548 71.6246 17.8969 71.5931 17.7495 71.5321C17.6022 71.4711 17.4683 71.3816 17.3556 71.2689C17.2428 71.1561 17.1534 71.0222 17.0924 70.8749C17.0314 70.7275 17 70.5696 17 70.4102V42.4826C17.001 41.5168 17.3852 40.5908 18.0681 39.9079C18.751 39.225 19.677 38.8409 20.6428 38.8398H49.7848C50.7506 38.8409 51.6765 39.225 52.3594 39.9079C53.0423 40.5908 53.4265 41.5168 53.4275 42.4826V61.9105C53.4275 62.0835 53.3906 62.2545 53.3191 62.4121C53.2476 62.5697 53.1433 62.7102 53.0132 62.8241L43.299 71.3238C43.0777 71.5176 42.7935 71.6245 42.4993 71.6246Z" fill="#FFCC66"/>
<path d="M43.7165 57.0554H40.0736C38.4868 57.0485 38.485 54.6337 40.0736 54.627H43.7163C45.3033 54.6337 45.305 57.0489 43.7165 57.0554Z" fill="#FFBA55"/>
<path d="M38.1816 49.5564L35.2242 47.5352L32.2668 49.5564C31.504 50.1157 30.3367 49.4996 30.3678 48.5539V40.0541C30.3678 39.732 30.4957 39.4232 30.7234 39.1955C30.9512 38.9678 31.26 38.8398 31.582 38.8398H38.8675C39.1894 38.8402 39.4979 38.9682 39.7253 39.1959C39.9528 39.4236 40.0805 39.7323 40.0805 40.0541V48.5537C40.1101 49.4987 38.9467 50.1153 38.1816 49.5564Z" fill="#F8834B"/>
<path d="M42.4993 71.6246H18.2143C18.0548 71.6246 17.8969 71.5931 17.7495 71.5321C17.6022 71.4711 17.4683 71.3816 17.3556 71.2689C17.2428 71.1561 17.1534 71.0222 17.0924 70.8749C17.0314 70.7275 17 70.5696 17 70.4102V42.4826C17.001 41.5168 17.3852 40.5908 18.0681 39.9079C18.751 39.225 19.677 38.8409 20.6428 38.8398H49.7848C50.7506 38.8409 51.6765 39.225 52.3594 39.9079C53.0423 40.5908 53.4265 41.5168 53.4275 42.4826V61.9105C53.4275 62.0835 53.3906 62.2545 53.3191 62.4121C53.2476 62.5697 53.1433 62.7102 53.0132 62.8241L43.299 71.3238C43.0777 71.5176 42.7935 71.6245 42.4993 71.6246Z" fill="#FFCC66"/>
<path d="M43.7165 57.0554H40.0736C38.4868 57.0485 38.485 54.6337 40.0736 54.627H43.7163C45.3033 54.6337 45.305 57.0489 43.7165 57.0554Z" fill="#FFBA55"/>
<path d="M38.1816 49.5564L35.2242 47.5352L32.2668 49.5564C31.504 50.1157 30.3367 49.4996 30.3678 48.5539V40.0541C30.3678 39.732 30.4957 39.4232 30.7234 39.1955C30.9512 38.9678 31.26 38.8398 31.582 38.8398H38.8675C39.1894 38.8402 39.4979 38.9682 39.7253 39.1959C39.9528 39.4236 40.0805 39.7323 40.0805 40.0541V48.5537C40.1101 49.4987 38.9467 50.1153 38.1816 49.5564Z" fill="#F8834B"/>
<path d="M49.7782 38.8398H35.207V71.6246H42.4927C42.7877 71.6235 43.0724 71.5157 43.294 71.321L53.0082 62.8209C53.1389 62.7081 53.2435 62.5682 53.3148 62.411C53.386 62.2537 53.4223 62.0828 53.4209 61.9102V42.4826C53.4181 41.5173 53.0333 40.5925 52.3508 39.91C51.6683 39.2274 50.7434 38.8427 49.7782 38.8398Z" fill="#FFBA55"/>
<path d="M43.7165 57.0554H40.0736C38.4868 57.0485 38.485 54.6337 40.0736 54.627H43.7163C45.3033 54.6337 45.305 57.0489 43.7165 57.0554Z" fill="#FFA92C"/>
<path d="M38.8498 38.8398H35.207V47.5334L38.1699 49.5613C38.921 50.1175 40.0922 49.4952 40.064 48.5534V40.0539C40.063 39.7322 39.9348 39.424 39.7073 39.1965C39.4798 38.969 39.1715 38.8408 38.8498 38.8398Z" fill="#F66824"/>
<path d="M19.6599 3.84646C18.3996 7.76284 12.793 9.16015 9.86076 6.20139L12.9206 1.11364C13.0039 0.975135 13.114 0.854656 13.2444 0.759275C13.3749 0.663894 13.5231 0.595533 13.6803 0.558204C13.8375 0.520876 14.0006 0.515332 14.16 0.541899C14.3194 0.568466 14.4719 0.626607 14.6085 0.712911C14.7575 0.804761 19.5031 3.74835 19.6599 3.84646ZM11.5365 15.8546C11.5393 17.4172 10.934 18.9196 9.84856 20.0437C8.64151 19.2895 6.04182 17.6453 4.82147 16.8745C4.55198 16.7063 4.35911 16.4393 4.28423 16.1306C4.20934 15.8219 4.2584 15.4961 4.42089 15.2232L6.1936 12.2848L7.48077 10.1354C8.66573 10.5515 9.6923 11.3252 10.4188 12.3496C11.1452 13.374 11.5358 14.5987 11.5365 15.8546ZM39.0151 29.6728L37.643 31.7977L35.6276 34.9182C35.5431 35.0523 35.4328 35.1682 35.3031 35.2593C35.1734 35.3503 35.0268 35.4147 34.872 35.4486C34.7172 35.4825 34.5572 35.4853 34.4013 35.4568C34.2454 35.4283 34.0967 35.3691 33.9639 35.2827C32.2951 34.2281 30.6275 33.1717 28.9611 32.1133C30.1509 27.909 36 26.4926 39.0151 29.6728ZM24.2861 23.0552C17.8673 22.8518 17.8689 13.5442 24.2861 13.3411C30.705 13.5452 30.7035 22.8521 24.2861 23.0552Z" fill="#6F9A3D"/>
<path d="M56.6223 57.2783C56.1341 56.5404 55.3916 56.0078 54.5363 55.7816C53.6809 55.5555 52.7722 55.6516 51.9831 56.0518C49.9231 57.0562 34.8001 64.4341 33.1621 65.2315C33.3103 64.9774 33.4324 64.7088 33.5264 64.43C33.7136 63.9352 33.8281 63.4157 33.8664 62.888V62.8758C34.0823 59.7529 31.5596 57.0465 28.4508 57.0597H20.3158L19.9394 55.9174C19.702 55.19 19.2405 54.5564 18.6212 54.1071C18.0018 53.6578 17.2562 53.4159 16.491 53.416H10.9175C10.5958 53.417 10.2874 53.5453 10.0599 53.7728C9.83238 54.0003 9.70412 54.3086 9.70312 54.6304V71.5327C9.705 71.7644 9.77202 71.9909 9.89654 72.1862C10.0211 72.3816 10.198 72.538 10.4073 72.6376L23.667 78.7452C26.4477 79.9908 29.5314 80.3981 32.5402 79.9173C35.5489 79.4365 38.3521 78.0884 40.6061 76.0382L56.0515 62.0502C56.7162 61.4638 57.1417 60.6532 57.247 59.7731C57.3523 58.893 57.1299 58.0049 56.6223 57.2783Z" fill="#F6CCAF"/>
<path d="M56.0512 62.0446L40.6059 76.0333C38.3519 78.0835 35.5488 79.4316 32.54 79.9124C29.5312 80.3933 26.4476 79.9859 23.6668 78.7403L10.4073 72.6324C10.198 72.5328 10.0211 72.3764 9.89654 72.1811C9.77202 71.9857 9.705 71.7592 9.70312 71.5275V69.0994C9.70497 69.3311 9.77198 69.5576 9.8965 69.753C10.021 69.9484 10.198 70.1048 10.4073 70.2044L23.667 76.312C26.4478 77.5575 29.5315 77.9647 32.5403 77.4838C35.5491 77.0028 38.3522 75.6545 40.6061 73.6042L56.0512 59.6161C56.4983 59.2103 56.8401 58.702 57.047 58.1348C57.2957 58.8107 57.3336 59.5462 57.1558 60.2442C56.9781 60.9422 56.5929 61.5699 56.0512 62.0446Z" fill="#F3BD98"/>
<path d="M8.4938 76.4833H1.21425C0.892211 76.4833 0.583362 76.3554 0.355646 76.1277C0.12793 75.9 0 75.5911 0 75.2691V52.1986C0 51.8766 0.12793 51.5677 0.355646 51.34C0.583362 51.1123 0.892211 50.9844 1.21425 50.9844H8.49333C9.46076 50.9855 10.3882 51.3703 11.0723 52.0543C11.7565 52.7384 12.1414 53.6658 12.1427 54.6332V72.8345C12.1414 73.8019 11.7565 74.7292 11.0725 75.4132C10.3885 76.0972 9.46114 76.4821 8.4938 76.4833Z" fill="#425B72"/>
<path d="M12.1427 70.9922V72.8257C12.1416 73.7947 11.7562 74.7237 11.071 75.4089C10.3857 76.094 9.45669 76.4793 8.4877 76.4802H1.21425C0.892503 76.4792 0.584205 76.351 0.356695 76.1235C0.129184 75.896 0.000949417 75.5877 0 75.266V70.9922H12.1427Z" fill="#374F68"/>
<path d="M36.077 63.8066C36.019 65.2032 35.4252 66.5237 34.4189 67.4938C33.4127 68.4638 32.0713 69.0089 30.6736 69.0157H25.2822C23.694 69.0105 23.6908 66.5925 25.2822 66.5872H30.6734C31.1687 66.5854 31.6557 66.4601 32.0903 66.2226C32.525 65.9852 32.8935 65.6431 33.1626 65.2273L36.077 63.8066Z" fill="#E7A273"/>
<path d="M7.29959 67.7241C7.29271 69.312 4.87798 69.312 4.87109 67.7241C4.87767 66.1362 7.29286 66.1363 7.29959 67.7241Z" fill="#1F2F42"/>
<path d="M43.7442 17.3312C43.5733 17.6046 43.3008 17.799 42.9867 17.8719C42.6726 17.9447 42.3424 17.89 42.0685 17.7197L41.3885 17.3069C39.1834 15.9426 33.6259 12.5032 31.4922 11.1749C32.1921 10.7498 32.9961 10.527 33.8149 10.5313C34.6337 10.5356 35.4354 10.7667 36.1307 11.1991L43.3435 15.6555C43.6182 15.8251 43.8146 16.0966 43.8897 16.4106C43.9648 16.7246 43.9125 17.0556 43.7442 17.3312Z" fill="#E7A273"/>
<path d="M66.7839 27.9078H59.4984C58.5326 27.9068 57.6066 27.5227 56.9237 26.8397C56.2407 26.1568 55.8565 25.2309 55.8555 24.2651V10.9054C55.8567 9.94038 56.2406 9.01528 56.9229 8.33295C57.6053 7.65062 58.5304 7.26678 59.4954 7.26562H66.7839C67.1059 7.26563 67.4148 7.39355 67.6425 7.62127C67.8702 7.84898 67.9981 8.15783 67.9981 8.47986V26.6934C67.9981 26.8529 67.9668 27.0108 67.9057 27.1581C67.8447 27.3055 67.7553 27.4393 67.6425 27.5521C67.5298 27.6649 67.3959 27.7543 67.2486 27.8154C67.1013 27.8764 66.9433 27.9078 66.7839 27.9078Z" fill="#425B72"/>
<path d="M67.998 8.47986V10.9083H55.8555C55.8549 10.4298 55.9487 9.95581 56.1315 9.51357C56.3144 9.07132 56.5827 8.6695 56.9211 8.33112C57.2595 7.99274 57.6613 7.72445 58.1036 7.54161C58.5458 7.35877 59.0198 7.26499 59.4984 7.26563H66.7839C67.1056 7.26662 67.4139 7.39487 67.6413 7.62237C67.8688 7.84988 67.997 8.15815 67.998 8.47986Z" fill="#374F68"/>
<path d="M63.1394 21.8394C63.1324 23.4273 60.7177 23.4273 60.7109 21.8394C60.7178 20.2514 63.1329 20.2515 63.1394 21.8394Z" fill="#1F2F42"/>
<path d="M40.5715 27.2572L40.1221 27.9736L8.625 8.29112L12.9356 1.11492C13.1095 0.837519 13.3834 0.63754 13.7006 0.556312C14.0172 0.486827 14.3483 0.543462 14.6238 0.714194L36.0922 14.0102C30.8284 11.0537 26.5389 18.6326 31.466 21.7451L40.5715 27.2572Z" fill="#84B749"/>
<path d="M19.6624 3.84774C18.4022 7.76412 12.7955 9.16143 9.86328 6.20267C10.5917 4.98045 12.1769 2.34935 12.9232 1.11492C13.0971 0.837519 13.371 0.63754 13.6882 0.556312C14.0047 0.486827 14.3359 0.543463 14.6114 0.714194C14.4569 0.622813 18.4837 3.10292 19.6624 3.84774ZM29.1458 18.1994C29.1857 13.4092 22.7561 11.5555 20.2296 15.5459L28.4435 20.677C28.8987 19.9304 29.1415 19.0738 29.1458 18.1994Z" fill="#678C38"/>
</svg>
