<svg width="80" height="58" viewBox="0 0 80 58" fill="none" xmlns="http://www.w3.org/2000/svg">
<path d="M73.75 0H6.25C2.80391 0 0 2.80391 0 6.25V51.25C0 54.6961 2.80391 57.5 6.25 57.5H73.75C77.1961 57.5 80 54.6961 80 51.25V6.25C80 2.80391 77.1961 0 73.75 0Z" fill="#112A8D"/>
<path d="M27.5 25H12.5C11.1192 25 10 23.8808 10 22.5V12.5C10 11.1192 11.1192 10 12.5 10H27.5C28.8808 10 30 11.1192 30 12.5V22.5C30 23.8808 28.8808 25 27.5 25Z" fill="#FFD100"/>
<path d="M18.75 41.25H12.5C11.1192 41.25 10 40.1308 10 38.75V37.5C10 36.1192 11.1192 35 12.5 35H18.75C20.1308 35 21.25 36.1192 21.25 37.5V38.75C21.25 40.1308 20.1308 41.25 18.75 41.25ZM35 41.25H28.75C27.3692 41.25 26.25 40.1308 26.25 38.75V37.5C26.25 36.1192 27.3692 35 28.75 35H35C36.3808 35 37.5 36.1192 37.5 37.5V38.75C37.5 40.1308 36.3808 41.25 35 41.25ZM51.25 41.25H45C43.6192 41.25 42.5 40.1308 42.5 38.75V37.5C42.5 36.1192 43.6192 35 45 35H51.25C52.6308 35 53.75 36.1192 53.75 37.5V38.75C53.75 40.1308 52.6308 41.25 51.25 41.25ZM67.5 41.25H61.25C59.8692 41.25 58.75 40.1308 58.75 38.75V37.5C58.75 36.1192 59.8692 35 61.25 35H67.5C68.8808 35 70 36.1192 70 37.5V38.75C70 40.1308 68.8808 41.25 67.5 41.25Z" fill="#B8BAC0"/>
<path d="M36.25 48.75H11.25C10.5591 48.75 10 48.1903 10 47.5C10 46.8097 10.5591 46.25 11.25 46.25H36.25C36.9409 46.25 37.5 46.8097 37.5 47.5C37.5 48.1903 36.9409 48.75 36.25 48.75ZM52.5 48.75H41.25C40.5591 48.75 40 48.1903 40 47.5C40 46.8097 40.5591 46.25 41.25 46.25H52.5C53.1909 46.25 53.75 46.8097 53.75 47.5C53.75 48.1903 53.1909 48.75 52.5 48.75Z" fill="#8A8895"/>
<path d="M30 18.75H17.5V16.25H30V13.75H17.5V10H15V25H17.5V21.25H30V18.75Z" fill="#FF9500"/>
<path d="M62.5 25C66.6421 25 70 21.6421 70 17.5C70 13.3579 66.6421 10 62.5 10C58.3579 10 55 13.3579 55 17.5C55 21.6421 58.3579 25 62.5 25Z" fill="#FF4F19"/>
</svg>
