<svg width="24" height="24" viewBox="0 0 24 24" fill="none" xmlns="http://www.w3.org/2000/svg">
<path d="M11.5872 0C11.8618 0 12.1373 0 12.4118 0C12.4342 0.00373541 12.4567 0.00933852 12.4791 0.0102724C12.9516 0.0270817 13.4213 0.0747082 13.8892 0.148482C14.6746 0.271751 15.4403 0.471595 16.1846 0.750817C18.4585 1.60623 20.3122 3.01821 21.7345 4.98397C23.0914 6.86101 23.8347 8.96405 23.9776 11.2772C23.9841 11.3809 23.9925 11.4845 24 11.5882C24 11.8627 24 12.1382 24 12.4128C23.9963 12.4417 23.9916 12.4697 23.9888 12.4987C23.9496 12.9236 23.9262 13.3503 23.8683 13.7725C23.7497 14.6307 23.5284 15.4637 23.2165 16.2724C22.2789 18.6995 20.7203 20.6307 18.5482 22.0557C16.7795 23.2165 14.8305 23.8506 12.7172 23.9776C12.6154 23.9832 12.5146 23.9925 12.4128 24C12.1382 24 11.8627 24 11.5882 24C11.5658 23.9963 11.5433 23.9907 11.5209 23.9897C11.0484 23.9729 10.5787 23.9253 10.1108 23.8515C9.32545 23.7282 8.55969 23.5293 7.81541 23.2492C5.54241 22.3938 3.68778 20.9818 2.26553 19.016C0.908638 17.139 0.165292 15.036 0.0224125 12.7228C0.0158755 12.6191 0.00747082 12.5155 0 12.4118C0 12.1373 0 11.8618 0 11.5872C0.00373541 11.563 0.00840467 11.5387 0.0102724 11.5135C0.0401556 11.1605 0.0597665 10.8075 0.0999222 10.4563C0.181167 9.75409 0.337121 9.06677 0.550973 8.39253C1.073 6.74521 1.90879 5.27626 3.06303 3.99035C4.03144 2.91175 5.1558 2.03113 6.44171 1.36156C7.96016 0.570584 9.57385 0.121401 11.2837 0.0224125C11.3846 0.0168093 11.4864 0.00747082 11.5872 0ZM1.12062 11.9981C1.12062 17.9981 6.00093 22.8794 12 22.8794C17.9981 22.8794 22.871 18.0075 22.8784 12.0047C22.8859 6.00934 18.0028 1.12342 12.0028 1.12062C6.00374 1.11875 1.12156 5.99907 1.12062 11.9981Z" fill="white"/>
<path d="M19.2284 18.749C18.8502 18.749 18.4823 18.749 18.1134 18.749C18.0695 16.8859 17.3692 15.3254 15.9562 14.1096C14.8048 13.1188 13.4535 12.6304 11.9323 12.6509C10.2672 12.6724 8.83748 13.2822 7.66643 14.4616C6.49444 15.643 5.91919 17.0839 5.89024 18.748C5.5195 18.748 5.15156 18.748 4.77148 18.748C4.78829 17.0923 5.2879 15.6047 6.30767 14.3019C7.3265 13.0002 8.64977 12.1532 10.2504 11.7348C9.03078 11.0195 8.33226 9.97541 8.27063 8.55315C8.22487 7.5063 8.57973 6.59113 9.30814 5.83564C10.8023 4.28451 13.263 4.29946 14.7263 5.87206C15.5593 6.76763 15.8787 7.83876 15.6807 9.04249C15.4828 10.2472 14.8048 11.1287 13.7505 11.732C15.7218 12.2661 17.2412 13.3961 18.2703 15.1611C18.9147 16.2649 19.2228 17.4649 19.2284 18.749ZM11.9995 5.80856C10.5558 5.81043 9.38471 6.98241 9.38658 8.42522C9.38845 9.86895 10.5614 11.0381 12.0051 11.0372C13.4432 11.0363 14.6143 9.86335 14.6152 8.42335C14.6152 6.98055 13.4414 5.80669 11.9995 5.80856Z" fill="white"/>
</svg>
