<svg width="15" height="24" viewBox="0 0 15 24" fill="none" xmlns="http://www.w3.org/2000/svg">
<path d="M14.3358 7.19735C14.3023 8.7535 13.8738 10.2111 13.2532 11.6171C12.1874 14.0315 10.7106 16.1869 9.0365 18.2134C8.60155 18.7399 8.14534 19.2489 7.6859 19.7541C7.34181 20.133 6.9829 20.1272 6.6285 19.7638C4.88162 17.9725 3.34674 16.0168 2.09602 13.8479C1.17716 12.2543 0.450311 10.5822 0.13586 8.75221C-0.159904 7.02982 0.00634254 5.37057 0.841442 3.81636C1.65012 2.31176 2.84671 1.20796 4.42992 0.56553C6.42746 -0.245084 8.42306 -0.194823 10.3497 0.784614C12.5554 1.90581 13.8422 3.7255 14.2391 6.16701C14.2939 6.50659 14.3048 6.8539 14.3358 7.19735ZM7.13755 18.5118C7.20649 18.4377 7.25869 18.3894 7.30251 18.3339C8.07703 17.3597 8.88507 16.4092 9.61707 15.404C10.8736 13.6784 11.9529 11.8477 12.6237 9.80446C13.0296 8.56663 13.2294 7.30625 12.9697 6.00914C12.3253 2.79568 9.15184 0.694403 5.95256 1.37743C2.90019 2.02889 0.854329 4.85894 1.28992 8.11815C1.49934 9.68396 2.05414 11.1306 2.78163 12.5166C3.71596 14.2957 4.88484 15.9156 6.1884 17.4408C6.49447 17.7991 6.81343 18.1471 7.13755 18.5118Z" fill="#ffffff"/>
<path d="M7.37967 22.7562C8.73091 22.7465 10.26 22.5822 11.6944 21.9436C12.0829 21.7703 12.4495 21.5158 12.7724 21.2368C13.1377 20.9204 13.1184 20.5866 12.782 20.2328C12.3374 19.765 11.7594 19.5234 11.1679 19.3075C11.0397 19.2611 10.9056 19.2263 10.7845 19.1664C10.5152 19.033 10.394 18.7141 10.492 18.4267C10.586 18.1496 10.8992 17.9537 11.1814 18.0349C12.0932 18.2972 12.9547 18.6638 13.6345 19.3552C14.5077 20.2438 14.4625 21.4095 13.5321 22.2394C12.7228 22.9611 11.7395 23.3245 10.7091 23.57C8.13423 24.1841 5.56771 24.1519 3.02376 23.3993C2.19446 23.1544 1.41542 22.7968 0.769117 22.1988C-0.104 21.3914 -0.160704 20.3037 0.635088 19.4209C0.789736 19.2495 0.968226 19.0943 1.15445 18.9564C1.79624 18.4821 2.5263 18.1934 3.2873 17.9782C3.58886 17.8932 3.91942 18.0877 4.01544 18.3842C4.11338 18.6883 3.97097 19.0124 3.66297 19.1381C3.41102 19.2412 3.13523 19.2927 2.89424 19.4151C2.48184 19.6246 2.05656 19.8314 1.69443 20.113C1.16862 20.5215 1.18602 20.9359 1.69314 21.3708C2.29304 21.8856 3.0244 22.135 3.76929 22.3419C4.88275 22.6518 6.02457 22.7549 7.37967 22.7562Z" fill="#ffffff"/>
<path d="M4.50685 6.76174C4.61446 6.48724 4.71692 6.2282 4.83999 5.91504C4.73818 5.82418 4.60093 5.71464 4.47915 5.59028C4.21689 5.32158 4.2098 4.95493 4.45144 4.70621C4.6847 4.4665 5.04619 4.45619 5.32004 4.68945C5.45407 4.80351 5.57844 4.92851 5.70731 5.04837C5.96248 4.93625 6.20991 4.82735 6.47862 4.70879C6.47862 4.54963 6.47346 4.37372 6.4799 4.19845C6.49279 3.84727 6.73185 3.59532 7.06048 3.57857C7.40973 3.56117 7.72224 3.78927 7.69518 4.14948C7.66167 4.59667 7.83114 4.80157 8.24289 4.88148C8.34857 4.9021 8.44393 4.97555 8.57861 5.04257C8.69781 4.91627 8.81831 4.77773 8.95105 4.65208C9.19913 4.41689 9.55675 4.4156 9.79968 4.64048C10.0433 4.86601 10.1012 5.26487 9.84156 5.47816C9.4717 5.78101 9.44786 6.07355 9.69465 6.44278C9.73331 6.50077 9.74555 6.5768 9.77777 6.66508C9.96013 6.66508 10.1438 6.65671 10.3268 6.66702C10.6857 6.68635 10.9267 6.94667 10.9189 7.29398C10.9112 7.64194 10.6612 7.87714 10.2926 7.88294C9.82868 7.89067 9.83061 7.89196 9.6663 8.30693C9.60766 8.45449 9.53549 8.59689 9.44786 8.78956C9.57029 8.89717 9.7114 9.00413 9.83254 9.13107C10.0793 9.38946 10.0787 9.75353 9.8435 9.9971C9.59799 10.251 9.23264 10.2587 8.96265 10.0003C8.83571 9.87918 8.73454 9.73162 8.64304 9.62272C8.36854 9.73678 8.15784 9.81539 7.95679 9.91269C7.90138 9.93975 7.84532 10.0197 7.83758 10.0809C7.81954 10.2233 7.8363 10.3695 7.82985 10.5139C7.81568 10.8412 7.5676 11.0887 7.24541 11.1035C6.92838 11.1177 6.60298 10.8838 6.62553 10.5654C6.65904 10.0996 6.4741 9.90302 6.0456 9.76771C5.79688 9.68909 5.65898 9.68201 5.50369 9.88112C5.43603 9.96811 5.34517 10.0422 5.25174 10.1021C4.99464 10.2671 4.66472 10.2175 4.46239 9.99452C4.26006 9.77157 4.2446 9.44037 4.44886 9.2026C4.57838 9.05117 4.73754 8.92552 4.8677 8.80374C4.76396 8.55308 4.68148 8.33592 4.58289 8.12715C4.55969 8.07818 4.48366 8.03114 4.42695 8.0247C4.2839 8.00923 4.13763 8.02534 3.99394 8.01567C3.64727 7.99183 3.39983 7.73989 3.39274 7.41255C3.38566 7.09294 3.60667 6.83648 3.94561 6.79267C4.13505 6.76754 4.32836 6.77076 4.50685 6.76174ZM8.60825 7.33587C8.6076 6.52912 7.95679 5.88347 7.15069 5.88927C6.34588 5.89442 5.69829 6.55039 5.70538 7.35198C5.71246 8.13939 6.36585 8.78827 7.1552 8.79085C7.95615 8.79342 8.60889 8.14004 8.60825 7.33587Z" fill="#ffffff"/>
</svg>
