<svg width="28" height="29" viewBox="0 0 28 29" fill="none" xmlns="http://www.w3.org/2000/svg">
<path d="M4.28009 24.2945C4.90013 24.3928 5.51867 24.4808 6.13423 24.5911C6.98528 24.7431 7.77821 25.0531 8.54729 25.4526C9.41921 25.9057 10.306 26.3364 11.2182 26.7016C12.8354 27.3484 14.4689 27.3931 16.1308 26.7761C18.1012 26.0428 19.9613 25.0904 21.7811 24.0575C23.0063 23.3629 24.2165 22.6401 25.4 21.8799C25.9127 21.5505 26.3732 21.1213 26.8055 20.6861C27.1542 20.3343 27.0231 20.0213 26.5267 20.0064C26.1407 19.9945 25.7368 20.0616 25.3642 20.1718C24.0898 20.5474 22.9303 21.1883 21.7558 21.7935C21.0612 22.1512 20.3711 22.5163 19.6766 22.8741C19.3308 23.0529 19.0312 22.9873 18.9 22.7146C18.7674 22.4388 18.8881 22.1646 19.2309 21.9932C20.8436 21.1869 22.4429 20.3507 24.0779 19.5921C24.698 19.3044 25.394 19.1583 26.0692 19.0212C26.3837 18.9571 26.7518 19.0108 27.0618 19.1136C27.9457 19.4057 28.2766 20.306 27.743 21.0646C27.4225 21.5207 27.0126 21.9589 26.5491 22.2645C25.2002 23.1587 23.8216 24.0128 22.422 24.8266C20.62 25.8744 18.7808 26.8581 16.8119 27.5601C16.0711 27.8239 15.3021 28.0489 14.5255 28.1622C13.1975 28.3545 11.9068 28.0624 10.6816 27.5541C9.73072 27.1606 8.80514 26.6971 7.89 26.2216C6.75873 25.6344 5.54103 25.4481 4.26817 25.311C4.26072 25.4332 4.25177 25.5241 4.24879 25.6165C4.23091 26.1501 3.94623 26.4392 3.41562 26.4407C2.55563 26.4437 1.69712 26.4452 0.837123 26.4407C0.296085 26.4378 0.00246383 26.1412 0.000973364 25.5927C-0.0005171 23.7505 0.000973364 21.9067 0.000973364 20.0616C0.000973364 19.4728 -0.00200756 18.8841 0.00246383 18.2939C0.00693522 17.7439 0.293104 17.4562 0.844576 17.4532C1.64644 17.4488 2.44682 17.4518 3.24869 17.4518C3.93878 17.4518 4.11614 17.5904 4.28456 18.2924C4.58564 18.2044 4.88373 18.109 5.18779 18.0315C6.03586 17.8154 6.87797 17.5516 7.73797 17.407C8.98251 17.1999 10.1793 17.4041 11.2763 18.0673C11.5327 18.2223 11.792 18.3699 12.0424 18.5353C12.889 19.0957 13.7714 19.5816 14.7089 19.9811C15.94 20.5057 17.0966 21.1705 18.0505 22.1273C18.3456 22.4224 18.6213 22.7697 18.8002 23.1438C19.3353 24.2587 18.5528 25.3333 17.3216 25.1962C16.9222 25.1515 16.5183 25.0725 16.1352 24.9488C14.8415 24.5315 13.5687 24.0456 12.2645 23.667C11.3613 23.4047 10.4223 23.2675 9.49522 23.0946C9.12261 23.0246 8.93779 22.8681 8.96015 22.5521C8.98251 22.2436 9.19713 22.0811 9.58167 22.1124C10.9276 22.2197 12.2168 22.573 13.4897 23.0097C14.6463 23.4062 15.8133 23.7758 16.9803 24.1469C17.1428 24.1991 17.3231 24.208 17.4945 24.2095C17.9193 24.217 18.1056 23.9442 17.9074 23.5656C17.7703 23.3048 17.5869 23.0574 17.3768 22.8502C16.4631 21.9485 15.3408 21.3717 14.1991 20.8187C13.3332 20.3999 12.4985 19.917 11.6519 19.4594C11.5252 19.3908 11.403 19.3104 11.2853 19.2269C9.95727 18.27 8.49512 18.1254 6.95399 18.5383C6.1074 18.7648 5.26827 19.0212 4.42914 19.2776C4.35611 19.2999 4.26072 19.4147 4.25923 19.4877C4.25028 21.0617 4.25326 22.6356 4.25625 24.2095C4.25476 24.2378 4.26966 24.2647 4.28009 24.2945ZM3.23081 25.4511C3.23081 23.1081 3.23081 20.7874 3.23081 18.4563C2.4811 18.4563 1.75376 18.4563 1.01598 18.4563C1.01598 20.7949 1.01598 23.1155 1.01598 25.4511C1.75525 25.4511 2.47514 25.4511 3.23081 25.4511Z" fill="white"/>
<path d="M13.9231 2.34296C14.4403 2.35488 14.8025 2.60081 15.0275 3.05689C15.4628 3.93924 15.9054 4.81862 16.3287 5.70544C16.433 5.92454 16.5791 6.01844 16.8086 6.05123C17.7745 6.18388 18.7373 6.32846 19.7016 6.46409C20.2054 6.53414 20.5706 6.78603 20.7345 7.27192C20.8955 7.75185 20.7941 8.18855 20.429 8.54775C19.7121 9.25125 18.9937 9.95177 18.2693 10.6478C18.1247 10.7864 18.0636 10.9206 18.1024 11.1307C18.2782 12.0891 18.4288 13.0504 18.6017 14.0088C18.6956 14.5305 18.5868 14.9746 18.156 15.2981C17.7268 15.6185 17.2662 15.6185 16.7952 15.3696C15.9263 14.9091 15.0514 14.4589 14.1854 13.9909C13.9917 13.8866 13.8382 13.894 13.6489 13.9969C12.7993 14.4545 11.9408 14.8912 11.0912 15.3487C10.6143 15.6051 10.1493 15.6364 9.7036 15.31C9.25945 14.9851 9.14468 14.5379 9.24454 14.0014C9.42191 13.0445 9.56797 12.0802 9.74236 11.1218C9.77962 10.9221 9.72894 10.7969 9.59033 10.6642C8.88832 9.98754 8.19675 9.29895 7.49027 8.62675C7.09529 8.25115 6.93581 7.81445 7.10275 7.29279C7.27117 6.76665 7.66614 6.52371 8.20569 6.45365C9.15213 6.33144 10.0956 6.17941 11.042 6.05123C11.2746 6.01993 11.4147 5.91709 11.5175 5.69948C11.9363 4.82011 12.376 3.95117 12.8053 3.07626C13.0348 2.60826 13.4 2.35488 13.9231 2.34296ZM10.1999 14.2831C10.191 14.529 10.3564 14.6095 10.6158 14.4753C11.4877 14.0207 12.3626 13.5706 13.2271 13.1011C13.6936 12.8477 14.1348 12.8433 14.6013 13.0952C15.4493 13.5527 16.3049 13.9999 17.1634 14.4381C17.2781 14.4962 17.4272 14.4843 17.5613 14.5051C17.5792 14.3799 17.6284 14.2503 17.609 14.131C17.4555 13.1697 17.3005 12.2068 17.1216 11.25C17.0248 10.7343 17.1708 10.3274 17.542 9.97115C18.2455 9.29597 18.943 8.61334 19.6346 7.92772C19.7136 7.84873 19.8149 7.68627 19.7836 7.62516C19.7359 7.53275 19.5869 7.45674 19.4706 7.43885C18.4795 7.28235 17.4868 7.13778 16.4942 6.99618C16.0232 6.92911 15.7042 6.67871 15.4985 6.25393C15.0723 5.37754 14.64 4.50562 14.2003 3.63668C14.1407 3.51893 14.0185 3.43398 13.9246 3.33262C13.8292 3.4295 13.7025 3.50999 13.6444 3.62475C13.1958 4.51009 12.7591 5.40288 12.3194 6.29268C12.1271 6.68319 11.823 6.92315 11.3863 6.98575C10.3743 7.13331 9.36229 7.28086 8.35324 7.43885C8.24295 7.45674 8.08645 7.52381 8.05664 7.60578C8.02832 7.68478 8.11477 7.8368 8.19227 7.9158C8.73778 8.4628 9.29522 8.99788 9.84967 9.53593C10.8677 10.5241 10.8647 10.5256 10.6053 11.9177C10.4608 12.7032 10.3341 13.4946 10.1999 14.2831Z" fill="white"/>
<path d="M24.7981 18.7307C24.8026 19.1972 24.3838 19.4595 24.0678 19.2315C23.6683 18.9438 23.2525 18.9721 22.8247 19.072C22.0065 19.2628 21.2836 19.6771 20.5712 20.1019C19.8423 20.5371 19.1299 20.9992 18.41 21.4478C18.0821 21.652 17.7855 21.6177 17.6245 21.3584C17.4591 21.0916 17.5411 20.8143 17.8824 20.6131C19.1016 19.8932 20.3118 19.1525 21.5564 18.4788C22.2375 18.1091 22.9976 17.893 23.7891 18.0629C24.0872 18.127 24.3689 18.2984 24.6372 18.4564C24.7325 18.5131 24.7683 18.6755 24.7981 18.7307Z" fill="white"/>
<path d="M18.6864 18.2835C18.989 18.1151 19.2871 17.9392 19.5926 17.7797C20.1009 17.5129 20.6434 17.4071 21.2157 17.4712C21.5541 17.5099 21.7687 17.7216 21.7508 18.0003C21.7299 18.3059 21.4944 18.4922 21.1367 18.4489C20.6166 18.3863 20.153 18.5443 19.7431 18.8275C18.9577 19.37 18.1946 19.9424 17.4225 20.5028C17.336 20.5654 17.2541 20.634 17.1661 20.6906C16.9113 20.8545 16.6311 20.8173 16.4671 20.6041C16.3002 20.3851 16.3434 20.078 16.5893 19.8902C17.2094 19.4148 17.8368 18.9497 18.4599 18.4773C18.5433 18.4147 18.6178 18.3416 18.6968 18.2731L18.6864 18.2835Z" fill="white"/>
<path d="M18.696 18.2746C18.5738 18.2955 18.4486 18.3447 18.3294 18.3313C17.8823 18.2821 17.5216 18.4445 17.1996 18.7382C16.7883 19.1152 16.3754 19.4938 15.9506 19.8575C15.6495 20.1153 15.3589 20.1079 15.1637 19.8635C14.9684 19.619 15.0325 19.3448 15.3261 19.0899C15.7911 18.6845 16.2427 18.2642 16.7093 17.8618C17.1445 17.4877 17.6557 17.3207 18.231 17.3461C18.471 17.3565 18.7005 17.3818 18.8227 17.6248C18.9479 17.8767 18.854 18.0898 18.6856 18.2836C18.6871 18.2836 18.696 18.2746 18.696 18.2746Z" fill="white"/>
<path d="M21.282 15.7124C21.2715 16.1253 20.8303 16.3712 20.5248 16.1417C20.2595 15.9405 20.0225 15.6916 19.8124 15.4322C19.6603 15.2444 19.6901 15.0104 19.8615 14.8256C20.0255 14.6497 20.2625 14.602 20.4369 14.7377C20.7215 14.9598 20.966 15.237 21.2149 15.5023C21.2671 15.5589 21.2685 15.6647 21.282 15.7124Z" fill="white"/>
<path d="M7.67645 2.31165C7.82699 2.36083 7.94026 2.3653 8.00286 2.42343C8.25773 2.65743 8.5126 2.89591 8.73617 3.15823C8.89267 3.34305 8.83305 3.62623 8.65419 3.78571C8.47832 3.94221 8.20109 3.9601 8.01777 3.79764C7.78823 3.59195 7.54678 3.38627 7.37389 3.13736C7.28297 3.00769 7.26955 2.76475 7.3247 2.60974C7.3709 2.47858 7.56466 2.39958 7.67645 2.31165Z" fill="white"/>
<path d="M20.6409 2.79752C20.5708 2.95104 20.547 3.06431 20.4814 3.13735C20.2742 3.36539 20.0581 3.58747 19.8286 3.79315C19.6348 3.96753 19.3516 3.94518 19.1728 3.77079C18.9984 3.60088 18.9656 3.3013 19.134 3.11201C19.3442 2.87502 19.5618 2.63208 19.8166 2.44875C19.9374 2.3623 20.1803 2.35336 20.3219 2.41596C20.4605 2.47707 20.541 2.67083 20.6409 2.79752Z" fill="white"/>
<path d="M8.1181 15.0567C8.13152 15.48 7.35051 16.2684 7.03603 16.2148C6.88698 16.1894 6.69322 16.0732 6.63807 15.9465C6.57696 15.8064 6.59336 15.5634 6.6813 15.4427C6.86611 15.1893 7.09863 14.9583 7.3535 14.7765C7.47422 14.6915 7.7127 14.6885 7.85876 14.7467C7.98992 14.8018 8.06743 14.9911 8.1181 15.0567Z" fill="white"/>
<path d="M22.1124 9.44056C22.017 9.43162 21.9097 9.43311 21.8069 9.41224C21.5818 9.36455 21.4566 9.21103 21.4357 8.99044C21.4134 8.75644 21.5103 8.54628 21.7428 8.49859C21.9798 8.4509 22.2391 8.45089 22.4776 8.49263C22.7131 8.53436 22.8129 8.74452 22.7965 8.97703C22.7816 9.21252 22.649 9.37051 22.409 9.41522C22.3166 9.43311 22.2182 9.43311 22.1124 9.44056Z" fill="white"/>
<path d="M5.73203 9.43155C5.45927 9.44497 5.20291 9.42559 5.08368 9.12452C4.99425 8.90095 5.05088 8.7057 5.23272 8.55665C5.43691 8.38972 6.01671 8.39121 6.21941 8.55516C6.40572 8.70421 6.45937 8.90244 6.37591 9.12303C6.26263 9.42261 6.0018 9.44646 5.73203 9.43155Z" fill="white"/>
<path d="M14.4736 0.655773C14.4706 1.0895 14.247 1.33095 13.9042 1.26239C13.6419 1.21023 13.5122 1.04031 13.4928 0.777991C13.4615 0.342775 13.5614 0.117716 13.8267 0.0312687C14.2083 -0.0939302 14.4766 0.16541 14.4736 0.655773Z" fill="white"/>
<path d="M14.5342 16.8825C14.4716 17.3251 14.3166 17.5234 13.9932 17.5263C13.6638 17.5308 13.4954 17.3132 13.4894 16.8974C13.4865 16.6514 13.5192 16.4055 13.7741 16.325C13.9261 16.2773 14.1616 16.2893 14.2749 16.3802C14.4076 16.489 14.4508 16.7111 14.5342 16.8825Z" fill="white"/>
</svg>
