<svg width="23" height="24" viewBox="0 0 23 24" fill="none" xmlns="http://www.w3.org/2000/svg">
<path d="M6.22995 22.3609C5.96186 22.6724 5.61509 22.7144 5.24631 22.7111C4.46406 22.7044 3.68248 22.7111 2.90024 22.7084C2.17134 22.7064 1.78989 22.3249 1.78922 21.6014C1.78856 19.0466 1.79723 16.4911 1.78322 13.9363C1.77989 13.2914 2.22336 12.8086 2.87957 12.8353C3.70983 12.8693 4.54275 12.8433 5.37501 12.8433C6.00721 12.8433 6.32131 13.0947 6.46135 13.7122C6.46869 13.7436 6.47669 13.7743 6.4907 13.8336C7.9785 13.4862 9.39161 13.016 10.5013 11.907C11.0508 11.3575 11.3075 10.6686 11.3582 9.91171C11.4116 9.11413 12.3239 8.63465 13.0441 9.20016C13.8403 9.82502 14.1518 10.6679 14.1244 11.6556C14.1037 12.4005 13.837 13.0647 13.4315 13.6796C13.3862 13.7489 13.3415 13.8189 13.2975 13.8896C13.2942 13.8943 13.2995 13.905 13.3068 13.9403C13.5376 13.9403 13.775 13.9403 14.0124 13.9403C14.7526 13.9403 15.4935 13.9376 16.2338 13.941C17.0487 13.945 17.6502 14.4638 17.7442 15.2374C17.8309 15.9483 17.3548 16.5965 16.5985 16.7979C16.5752 16.8039 16.5545 16.8179 16.5085 16.8399C16.8193 17.29 16.928 17.7775 16.7266 18.295C16.5238 18.8158 16.123 19.1113 15.5542 19.2193C15.907 19.7175 15.9937 20.2316 15.7463 20.7664C15.5029 21.2933 15.0594 21.558 14.4592 21.618C14.6759 21.9515 14.7913 22.2849 14.766 22.6637C14.7193 23.3486 14.1464 23.9655 13.4622 23.9761C12.2645 23.9955 11.0641 24.0255 9.86976 23.9594C8.62937 23.8908 7.51969 23.4039 6.54672 22.6237C6.44935 22.5457 6.35465 22.4643 6.22995 22.3609ZM6.47803 14.3544C6.47336 14.4038 6.46669 14.4445 6.46669 14.4845C6.46602 16.8972 6.46469 19.3107 6.47069 21.7234C6.47069 21.8094 6.52004 21.9188 6.58339 21.9768C7.60171 22.9118 8.80676 23.4253 10.1852 23.474C11.2322 23.5106 12.2812 23.486 13.3288 23.482C13.847 23.48 14.2525 23.0772 14.2638 22.5723C14.2758 22.0569 13.9044 21.6534 13.3809 21.6174C13.2401 21.6074 13.0981 21.6047 12.9574 21.6034C12.778 21.6014 12.6286 21.54 12.6353 21.3413C12.642 21.1472 12.79 21.0879 12.9701 21.0892C13.4109 21.0925 13.8517 21.0939 14.2925 21.0912C14.4245 21.0905 14.5619 21.0932 14.6879 21.0599C15.1527 20.9358 15.4255 20.499 15.3615 20.0055C15.3055 19.5734 14.9213 19.2413 14.4592 19.23C14.1598 19.2226 13.8603 19.2293 13.5609 19.2186C13.3995 19.2126 13.2668 19.1153 13.3028 18.9545C13.3248 18.8572 13.4595 18.7725 13.5609 18.7105C13.6156 18.6771 13.707 18.7018 13.7816 18.7025C14.3138 18.7058 14.8466 18.7238 15.3781 18.7091C15.9503 18.6931 16.3291 18.2797 16.3131 17.7282C16.2978 17.2113 15.895 16.8365 15.3435 16.8339C14.7279 16.8305 14.1124 16.8332 13.4969 16.8332C13.3722 16.8332 13.2475 16.8305 13.1228 16.8339C12.9354 16.8392 12.774 16.7865 12.774 16.5725C12.774 16.3491 12.9494 16.3197 13.1294 16.3244C13.1795 16.3257 13.2295 16.3244 13.2788 16.3244C14.2271 16.3244 15.1754 16.3257 16.123 16.3231C16.2471 16.3231 16.3731 16.3157 16.4952 16.2937C16.8546 16.2297 17.1414 15.9403 17.2121 15.5842C17.3341 14.9653 16.904 14.4438 16.2571 14.4411C15.1261 14.4365 13.995 14.4445 12.864 14.4331C12.7333 14.4318 12.5326 14.3744 12.4919 14.2851C12.4512 14.1944 12.5366 14.005 12.6213 13.905C13.1101 13.3308 13.4876 12.7019 13.5876 11.9437C13.707 11.0414 13.5022 10.2351 12.7693 9.63563C12.3512 9.29352 11.9257 9.47424 11.8577 10.0064C11.791 10.5286 11.6903 11.0361 11.4269 11.5029C10.9594 12.3311 10.2439 12.886 9.43095 13.3308C8.50866 13.8369 7.51235 14.1424 6.47803 14.3544ZM4.14063 19.3293C3.55978 19.326 3.0863 19.7928 3.08963 20.365C3.09297 20.9292 3.55778 21.3873 4.12729 21.388C4.69613 21.3886 5.16095 20.9305 5.16495 20.3657C5.16962 19.8028 4.7048 19.3327 4.14063 19.3293Z" fill="white"/>
<path d="M8.92784 2.134C9.17725 2.134 9.42733 2.12467 9.67607 2.13667C9.85413 2.14534 9.94349 2.08599 9.99617 1.90793C10.1376 1.43112 10.2983 0.959636 10.4557 0.488155C10.569 0.148716 10.7591 0.00066918 11.0645 2.30421e-06C11.3719 -0.000664571 11.5593 0.143381 11.6747 0.486155C11.8368 0.965638 11.9995 1.44446 12.1468 1.92861C12.1949 2.08599 12.2722 2.13867 12.4303 2.13667C12.9211 2.13 13.4119 2.13134 13.9021 2.13534C14.2909 2.13801 14.5189 2.28405 14.6043 2.57148C14.6916 2.86823 14.5923 3.10297 14.2768 3.33371C13.8881 3.61847 13.5006 3.90589 13.1065 4.18265C12.9684 4.27934 12.9351 4.37337 12.9924 4.53809C13.1572 5.00757 13.3045 5.48305 13.4546 5.95787C13.5613 6.29464 13.4839 6.56473 13.2405 6.73411C12.9984 6.90217 12.7424 6.88749 12.4576 6.6821C12.0461 6.386 11.634 6.08991 11.2292 5.78515C11.1079 5.69379 11.0212 5.69845 10.9011 5.78848C10.4963 6.09325 10.0842 6.38934 9.67207 6.6841C9.38598 6.88883 9.1279 6.9015 8.88849 6.73278C8.64575 6.56206 8.57039 6.29464 8.67776 5.9552C8.82781 5.48105 8.97519 5.00557 9.13924 4.53542C9.19659 4.37071 9.16258 4.27734 9.02387 4.17998C8.62241 3.89922 8.22829 3.60647 7.83216 3.31704C7.5294 3.09564 7.43737 2.86757 7.52673 2.57081C7.61143 2.28872 7.83483 2.14201 8.20428 2.13534C8.44569 2.13 8.6871 2.134 8.92784 2.134ZM9.01253 2.64683C8.75445 2.64683 8.49704 2.6415 8.23896 2.65017C8.1656 2.65283 8.09424 2.69618 8.02155 2.72019C8.0629 2.78488 8.09024 2.86757 8.14759 2.91091C8.53305 3.20101 8.92384 3.48243 9.31396 3.76585C9.69941 4.04594 9.76543 4.246 9.61672 4.70814C9.46934 5.16629 9.31596 5.62243 9.17392 6.08191C9.15324 6.14993 9.18125 6.23329 9.18725 6.30931C9.26061 6.28864 9.34597 6.28664 9.40465 6.24529C9.81212 5.9572 10.2129 5.66044 10.617 5.36902C10.9478 5.13028 11.1752 5.12761 11.5033 5.36302C11.9021 5.64844 12.2956 5.9412 12.6964 6.22395C12.7637 6.2713 12.8537 6.28597 12.9338 6.31598C12.9391 6.22595 12.9711 6.12726 12.9464 6.04656C12.8037 5.57842 12.6463 5.11494 12.4976 4.64879C12.3743 4.26267 12.4476 4.04127 12.7697 3.80586C13.1718 3.5111 13.5766 3.21968 13.9754 2.92025C14.0341 2.87624 14.0674 2.79688 14.1121 2.73419C14.0354 2.70552 13.9587 2.65283 13.8807 2.6515C13.3899 2.64416 12.8998 2.64883 12.4089 2.6475C11.9948 2.64617 11.8007 2.50612 11.672 2.114C11.522 1.65719 11.3779 1.19838 11.2219 0.742902C11.1925 0.657542 11.1225 0.586186 11.0718 0.508828C11.0178 0.582852 10.9418 0.649539 10.9138 0.732232C10.7531 1.20305 10.6064 1.67853 10.449 2.15068C10.3329 2.49879 10.1282 2.6435 9.76077 2.6475C9.51135 2.64883 9.26194 2.64683 9.01253 2.64683Z" fill="white"/>
<path d="M4.11919 20.8958C3.82243 20.8912 3.58102 20.6484 3.58302 20.357C3.58502 20.0556 3.84177 19.8128 4.14853 19.8222C4.44196 19.8308 4.67936 20.0816 4.67069 20.3737C4.66269 20.6684 4.41795 20.8998 4.11919 20.8958Z" fill="white"/>
<path d="M16.4239 7.56101C16.6733 7.56101 16.9234 7.55167 17.1722 7.56367C17.3502 7.57234 17.4396 7.51299 17.4923 7.33494C17.6336 6.85812 17.7944 6.38664 17.9517 5.91516C18.0651 5.57572 18.2552 5.42767 18.5606 5.427C18.868 5.42634 19.0554 5.57038 19.1708 5.91316C19.3328 6.39264 19.4956 6.87146 19.6429 7.35561C19.691 7.51299 19.7683 7.56567 19.9264 7.56367C20.4172 7.557 20.908 7.55834 21.3982 7.56234C21.7869 7.56501 22.015 7.71105 22.1004 7.99848C22.1877 8.29524 22.0884 8.52998 21.7729 8.76072C21.3842 9.04547 20.9967 9.33289 20.6026 9.60965C20.4645 9.70635 20.4312 9.80037 20.4885 9.96509C20.6533 10.4346 20.8006 10.9101 20.9507 11.3849C21.0574 11.7216 20.98 11.9917 20.7366 12.1611C20.4945 12.3292 20.2385 12.3145 19.9537 12.1091C19.5422 11.813 19.1301 11.5169 18.7253 11.2122C18.6039 11.1208 18.5173 11.1255 18.3972 11.2155C17.9924 11.5202 17.5803 11.8163 17.1682 12.1111C16.8821 12.3158 16.624 12.3285 16.3846 12.1598C16.1418 11.9891 16.0665 11.7216 16.1739 11.3822C16.3239 10.9081 16.4713 10.4326 16.6353 9.96243C16.6927 9.79771 16.6587 9.70434 16.52 9.60698C16.1185 9.32623 15.7244 9.03347 15.3283 8.74404C15.0255 8.52264 14.9335 8.29457 15.0228 7.99781C15.1075 7.71572 15.3309 7.56901 15.7004 7.56234C15.9411 7.55767 16.1825 7.56101 16.4239 7.56101ZM16.508 8.07383C16.2499 8.07383 15.9925 8.0685 15.7344 8.07717C15.661 8.07984 15.5897 8.12318 15.517 8.14719C15.5583 8.21188 15.5857 8.29457 15.643 8.33792C16.0285 8.62801 16.4193 8.90943 16.8094 9.19285C17.1948 9.47294 17.2609 9.673 17.1121 10.1351C16.9648 10.5933 16.8114 11.0494 16.6693 11.5089C16.6487 11.5769 16.6767 11.6603 16.6827 11.7363C16.756 11.7156 16.8414 11.7136 16.9001 11.6723C17.3075 11.3842 17.7083 11.0874 18.1125 10.796C18.4432 10.5573 18.6706 10.5546 18.9987 10.79C19.3975 11.0754 19.791 11.3682 20.1918 11.651C20.2591 11.6983 20.3492 11.713 20.4292 11.743C20.4345 11.653 20.4665 11.5543 20.4419 11.4736C20.2991 11.0054 20.1418 10.5419 19.993 10.0758C19.8697 9.68967 19.943 9.46827 20.2651 9.23286C20.6673 8.9381 21.0721 8.64668 21.4708 8.34725C21.5295 8.30324 21.5629 8.22388 21.6076 8.16119C21.5309 8.13252 21.4542 8.07984 21.3762 8.0785C20.8853 8.07117 20.3952 8.07583 19.9044 8.0745C19.4902 8.07317 19.2962 7.93312 19.1675 7.541C19.0174 7.08419 18.8734 6.62538 18.7173 6.1699C18.688 6.08454 18.618 6.01319 18.5673 5.93583C18.5133 6.00985 18.4372 6.07654 18.4092 6.15923C18.2485 6.63005 18.1018 7.10553 17.9444 7.57768C17.8284 7.92579 17.6236 8.0705 17.2562 8.0745C17.0074 8.0765 16.7574 8.07383 16.508 8.07383Z" fill="white"/>
<path d="M1.4337 7.54502C1.68311 7.54502 1.93319 7.53568 2.18193 7.54768C2.35999 7.55635 2.44935 7.497 2.50203 7.31894C2.64341 6.84213 2.80413 6.37065 2.96151 5.89917C3.07488 5.55973 3.26494 5.41168 3.57037 5.41101C3.8778 5.41035 4.06519 5.55439 4.18056 5.89717C4.34261 6.37665 4.50533 6.85547 4.65271 7.33962C4.70072 7.497 4.77808 7.54968 4.93613 7.54768C5.42695 7.54101 5.91777 7.54235 6.40792 7.54635C6.79671 7.54902 7.02478 7.69506 7.11014 7.98249C7.1975 8.27925 7.09814 8.51399 6.78271 8.74472C6.39392 9.02948 6.00646 9.3169 5.61234 9.59366C5.4743 9.69035 5.44095 9.78438 5.49831 9.9491C5.66302 10.4186 5.8104 10.8941 5.96045 11.3689C6.06715 11.7057 5.98979 11.9757 5.74638 12.1451C5.50431 12.3132 5.24823 12.2985 4.96347 12.0931C4.55201 11.797 4.13988 11.5009 3.73509 11.1962C3.61371 11.1048 3.52702 11.1095 3.40698 11.1995C3.00219 11.5043 2.59006 11.8003 2.17793 12.0951C1.89184 12.2998 1.63376 12.3125 1.39435 12.1438C1.15161 11.9731 1.07625 11.7057 1.18362 11.3662C1.33367 10.8921 1.48105 10.4166 1.6451 9.94643C1.70245 9.78172 1.66844 9.68835 1.52973 9.59099C1.12827 9.31024 0.734145 9.01748 0.338021 8.72805C0.0352593 8.50665 -0.0567696 8.27858 0.0325918 7.98182C0.117285 7.69973 0.340688 7.55302 0.710138 7.54635C0.951547 7.54101 1.19296 7.54502 1.4337 7.54502ZM1.51839 8.05784C1.26031 8.05784 1.0029 8.05251 0.744815 8.06118C0.671459 8.06384 0.600103 8.10719 0.527414 8.1312C0.56876 8.19589 0.596102 8.27858 0.653453 8.32193C1.03891 8.61202 1.4297 8.89344 1.81982 9.17686C2.20527 9.45695 2.27129 9.65701 2.12258 10.1192C1.9752 10.5773 1.82182 11.0334 1.67977 11.4929C1.6591 11.5609 1.68711 11.6443 1.69311 11.7203C1.76647 11.7003 1.85183 11.6977 1.91051 11.6563C2.31797 11.3682 2.71877 11.0715 3.12289 10.78C3.45366 10.5413 3.68107 10.5386 4.00917 10.774C4.40796 11.0595 4.80142 11.3522 5.20221 11.635C5.26957 11.6823 5.35959 11.697 5.43962 11.727C5.44496 11.637 5.47697 11.5383 5.45229 11.4576C5.30958 10.9894 5.1522 10.5259 5.00348 10.0598C4.88011 9.67368 4.95347 9.45228 5.27557 9.21687C5.67769 8.92211 6.08249 8.63069 6.48128 8.33126C6.53997 8.28725 6.57331 8.20789 6.61799 8.1452C6.5413 8.11653 6.46461 8.06384 6.38658 8.06251C5.89576 8.05518 5.40561 8.05984 4.91479 8.05851C4.50066 8.05718 4.3066 7.91713 4.17789 7.52501C4.02784 7.0682 3.8838 6.60939 3.72775 6.15391C3.69841 6.06855 3.62839 5.9972 3.5777 5.91984C3.52369 5.99386 3.44766 6.06055 3.41965 6.14324C3.25894 6.61406 3.11222 7.08954 2.95484 7.56169C2.8388 7.9098 2.63407 8.05451 2.26663 8.05851C2.01721 8.05984 1.7678 8.05784 1.51839 8.05784Z" fill="white"/>
</svg>
