<svg xmlns="http://www.w3.org/2000/svg" width="467.072" height="200" viewBox="0 0 467.072 200">
  <g id="Group_4399" data-name="Group 4399" transform="translate(-5908 -718)">
    <g id="Group_4398" data-name="Group 4398" transform="translate(5659 499)">
      <g id="Group_4389" data-name="Group 4389" transform="translate(-718.621 1825.159)">
        <g id="Group_4323" data-name="Group 4323" transform="translate(1066.996 -1606.159)">
          <path id="Path_1325" data-name="Path 1325" d="M1195.387-1579.894h95.2s-.163-6.021-13.833-4.72c-8.625-.185-7.486,2.278-19.041-11.555s-22.621-11.88-27.177-2.767-4.557,11.229-14,11.717S1200.758-1587.38,1195.387-1579.894Z" transform="translate(-1195.387 1606.159)" fill="#fffaf8"/>
        </g>
        <g id="Group_4324" data-name="Group 4324" transform="translate(1256.747 -1579.894)">
          <path id="Path_1326" data-name="Path 1326" d="M1725.494-1519.7h-95.2s.163-6.021,13.833-4.72c8.625-.184,7.486,2.278,19.041-11.555s22.621-11.88,27.177-2.767,4.557,11.229,14,11.717S1720.124-1527.182,1725.494-1519.7Z" transform="translate(-1630.291 1545.96)" fill="#fffaf8"/>
        </g>
        <g id="Group_4337" data-name="Group 4337" transform="translate(1230.027 -1571.354)">
          <g id="Group_4331" data-name="Group 4331" transform="translate(0 18.311)">
            <g id="Group_4326" data-name="Group 4326" transform="translate(0 20.423)">
              <g id="Group_4325" data-name="Group 4325">
                <path id="Path_1327" data-name="Path 1327" d="M1569.924-1433.835a.867.867,0,0,1-.275-.045.873.873,0,0,1-.553-1.1c.011-.033.275-.821.818-2.1a.873.873,0,0,1,1.145-.461.873.873,0,0,1,.461,1.145c-.513,1.2-.765,1.957-.768,1.964A.873.873,0,0,1,1569.924-1433.835Z" transform="translate(-1569.051 1437.611)" fill="#ff5722"/>
              </g>
            </g>
            <g id="Group_4328" data-name="Group 4328" transform="translate(2.738)">
              <g id="Group_4327" data-name="Group 4327">
                <path id="Path_1328" data-name="Path 1328" d="M1644.632-1463.63a.872.872,0,0,1-.872-.853.872.872,0,0,1,.853-.891c1.375-.03,2.848-.126,4.379-.286a.866.866,0,0,1,.958.777.872.872,0,0,1-.778.958c-1.577.164-3.1.263-4.521.295Zm-4.451-.142c-.027,0-.053,0-.081,0a29.668,29.668,0,0,1-4.521-.758.873.873,0,0,1-.633-1.06.873.873,0,0,1,1.059-.632,27.953,27.953,0,0,0,4.254.713.872.872,0,0,1,.789.949A.873.873,0,0,1,1640.181-1463.771Zm13.32-.749a.873.873,0,0,1-.86-.729.873.873,0,0,1,.717-1l.043-.007c1.3-.331,2.681-.742,4.1-1.222a.873.873,0,0,1,1.106.547.873.873,0,0,1-.547,1.106c-1.474.5-2.909.926-4.266,1.27a.718.718,0,0,1-.075.016l-.073.012A.91.91,0,0,1,1653.5-1464.521Zm-21.9-1.465a.873.873,0,0,1-.366-.081,27.584,27.584,0,0,1-3.987-2.282.872.872,0,0,1-.229-1.213.872.872,0,0,1,1.212-.23,25.745,25.745,0,0,0,3.737,2.14.872.872,0,0,1,.426,1.158A.872.872,0,0,1,1631.6-1465.986Zm-55.4-.277a.868.868,0,0,1-.417-.106.872.872,0,0,1-.349-1.184c.738-1.353,1.535-2.66,2.369-3.884a.873.873,0,0,1,1.213-.229.873.873,0,0,1,.229,1.212c-.8,1.177-1.569,2.433-2.279,3.736A.872.872,0,0,1,1576.2-1466.263Zm85.759-1.083a.873.873,0,0,1-.809-.544.873.873,0,0,1,.479-1.137c1.324-.538,2.687-1.133,4.049-1.768a.873.873,0,0,1,1.16.422.873.873,0,0,1-.422,1.16c-1.389.646-2.778,1.253-4.129,1.8A.866.866,0,0,1,1661.958-1467.346Zm-37.768-3.547a.869.869,0,0,1-.553-.2c-.532-.436-1.064-.88-1.6-1.33-.6-.5-1.205-1.007-1.828-1.516a.872.872,0,0,1-.124-1.227.873.873,0,0,1,1.228-.124c.627.513,1.239,1.024,1.843,1.528.534.446,1.062.887,1.589,1.32a.873.873,0,0,1,.121,1.228A.872.872,0,0,1,1624.19-1470.893Zm-42.951-2.719a.869.869,0,0,1-.571-.213.873.873,0,0,1-.088-1.23,33.066,33.066,0,0,1,3.226-3.251.873.873,0,0,1,1.231.084.872.872,0,0,1-.084,1.231,31.111,31.111,0,0,0-3.054,3.079A.872.872,0,0,1,1581.239-1473.612Zm35.984-2.841a.87.87,0,0,1-.5-.16,41.02,41.02,0,0,0-3.687-2.333.872.872,0,0,1-.336-1.188.872.872,0,0,1,1.188-.335,42.882,42.882,0,0,1,3.842,2.431.873.873,0,0,1,.209,1.216A.871.871,0,0,1,1617.223-1476.453Zm-29.256-2.966a.872.872,0,0,1-.746-.418.873.873,0,0,1,.29-1.2,23.607,23.607,0,0,1,4.16-2.018.873.873,0,0,1,1.12.518.873.873,0,0,1-.519,1.12,21.9,21.9,0,0,0-3.851,1.869A.867.867,0,0,1,1587.967-1479.419Zm21.432-1.256a.872.872,0,0,1-.314-.058,31.182,31.182,0,0,0-4.141-1.282.873.873,0,0,1-.653-1.047.872.872,0,0,1,1.047-.653,33.048,33.048,0,0,1,4.374,1.353.873.873,0,0,1,.5,1.128A.873.873,0,0,1,1609.4-1480.676Zm-13.115-1.777a.872.872,0,0,1-.862-.749.872.872,0,0,1,.74-.988,22.976,22.976,0,0,1,3.254-.23h0c.451,0,.909.013,1.363.039a.873.873,0,0,1,.822.921.862.862,0,0,1-.921.822c-.42-.023-.845-.036-1.263-.036h0a21.245,21.245,0,0,0-3.006.212A.85.85,0,0,1,1596.285-1482.452Z" transform="translate(-1575.328 1484.419)" fill="#ff5722"/>
              </g>
            </g>
            <g id="Group_4330" data-name="Group 4330" transform="translate(96.636 10.494)">
              <g id="Group_4329" data-name="Group 4329">
                <path id="Path_1329" data-name="Path 1329" d="M1791.413-1457.578a.871.871,0,0,1-.773-.467.873.873,0,0,1,.366-1.178c1.18-.62,1.877-1.022,1.884-1.026a.873.873,0,0,1,1.192.319.873.873,0,0,1-.319,1.192c-.03.017-.731.422-1.945,1.06A.874.874,0,0,1,1791.413-1457.578Z" transform="translate(-1790.54 1460.367)" fill="#ff5722"/>
              </g>
            </g>
          </g>
          <g id="Group_4336" data-name="Group 4336" transform="translate(99.424)">
            <g id="Group_4333" data-name="Group 4333">
              <g id="Group_4332" data-name="Group 4332">
                <path id="Path_1330" data-name="Path 1330" d="M1806.69-1511.7l-6.787,11.156,31.7-18.129L1797.3-1491.8l-.372,14.038,45-48.623Z" transform="translate(-1796.928 1526.387)" fill="#ffe6de"/>
              </g>
            </g>
            <g id="Group_4335" data-name="Group 4335" transform="translate(2.975 7.716)">
              <g id="Group_4334" data-name="Group 4334">
                <path id="Path_1331" data-name="Path 1331" d="M1803.747-1490.573l31.7-18.129-28.041,21.961Z" transform="translate(-1803.747 1508.702)" fill="#ff5722"/>
              </g>
            </g>
          </g>
        </g>
        <g id="Group_4388" data-name="Group 4388" transform="translate(967.621 -1531.873)">
          <g id="Group_4340" data-name="Group 4340" transform="translate(0 0)">
            <g id="Group_4338" data-name="Group 4338">
              <path id="Path_1332" data-name="Path 1332" d="M967.833-1315.41s-4.43-20.172,27.263-25.563,30.671-5.371,48.051-25.828,24.537-24.547,34.761-23.184,47.209-.142,57.636-1.488,38.777-15.739,52.218-29.624,43.24-24.836,72.191,0c14.211,12.19,19.389,14.348,23.92,22.763s25.244,38.747,44.663,43.755,51.351,3.058,57.824,6.191,12.945,3.348,15.535,2.053,5.394,6.042,6.9,7.767a59.075,59.075,0,0,0,9.925,8.415c3.237,1.942,16.182,6.831,15.967,14.743Z" transform="translate(-967.621 1435.897)" fill="#ffede6"/>
            </g>
            <g id="Group_4339" data-name="Group 4339" transform="translate(8.064 64.365)">
              <path id="Path_1333" data-name="Path 1333" d="M986.1-1232.251s6.6-12.767,28.534-12.767c10.738-1.994,12.119-12.119,20.4-13.96s28.38-3.068,41.88,2.608,49.244-6.167,62.744-15.05,104.99-27.861,126.293-8.669,44.5,0,44.5,0,12.583-12.471,23.592,8.669c11.01,11.109,16.122,9.807,23.593,9.968s29.49-3.377,46.005,14.71c11.01,7.471,8.875,6.573,12.468,7.2s7.968,5.211,7.812,7.293S986.1-1232.251,986.1-1232.251Z" transform="translate(-986.105 1288.372)" fill="#fff2ed"/>
            </g>
          </g>
          <g id="Group_4357" data-name="Group 4357" transform="translate(93.227 7.822)">
            <g id="Group_4341" data-name="Group 4341" transform="translate(0 102.836)">
              <ellipse id="Ellipse_55" data-name="Ellipse 55" cx="135.381" cy="7.528" rx="135.381" ry="7.528" fill="#ffe9e0"/>
            </g>
            <g id="Group_4356" data-name="Group 4356" transform="translate(33.786)">
              <g id="Group_4342" data-name="Group 4342" transform="translate(29.691 36.602)">
                <rect id="Rectangle_253" data-name="Rectangle 253" width="142.842" height="73.787" fill="#ff845d"/>
              </g>
              <g id="Group_4343" data-name="Group 4343" transform="translate(62.389 46.223)">
                <rect id="Rectangle_254" data-name="Rectangle 254" width="77.38" height="45.262" rx="3.133" fill="#fff" opacity="0.9"/>
              </g>
              <g id="Group_4390" data-name="Group 4390">
                <g id="Group_4344" data-name="Group 4344" transform="translate(80.525 58.26)">
                  <circle id="Ellipse_56" data-name="Ellipse 56" cx="3.014" cy="3.014" r="3.014" fill="#ff5722"/>
                </g>
                <g id="Group_4345" data-name="Group 4345" transform="translate(111.823 58.26)">
                  <circle id="Ellipse_57" data-name="Ellipse 57" cx="3.014" cy="3.014" r="3.014" fill="#ff5722"/>
                </g>
                <g id="Group_4346" data-name="Group 4346" transform="translate(92.254 75.036)">
                  <path id="Path_1334" data-name="Path 1334" d="M1471.051-1236.688a.866.866,0,0,1-.44-.12.872.872,0,0,1-.312-1.194c2.93-5,6.227-7.681,9.8-7.963,4.709-.368,7.99,3.571,8.127,3.739a.873.873,0,0,1-.12,1.228.873.873,0,0,1-1.227-.12h0c-.029-.034-2.86-3.409-6.655-3.106-2.964.24-5.8,2.63-8.417,7.1A.872.872,0,0,1,1471.051-1236.688Z" transform="translate(-1470.179 1245.989)" fill="#ff5722"/>
                </g>
              </g>
              <g id="Group_4350" data-name="Group 4350" transform="translate(29.691 46.365)">
                <g id="Group_4347" data-name="Group 4347">
                  <rect id="Rectangle_255" data-name="Rectangle 255" width="14.43" height="7.628" rx="3.814" fill="#ff5722"/>
                </g>
                <g id="Group_4348" data-name="Group 4348" transform="translate(0 18.462)">
                  <rect id="Rectangle_256" data-name="Rectangle 256" width="14.43" height="7.628" rx="3.814" fill="#ff5722"/>
                </g>
                <g id="Group_4349" data-name="Group 4349" transform="translate(0 36.923)">
                  <rect id="Rectangle_257" data-name="Rectangle 257" width="14.43" height="7.628" rx="3.814" fill="#ff5722"/>
                </g>
              </g>
              <g id="Group_4354" data-name="Group 4354" transform="translate(158.103 46.365)">
                <g id="Group_4351" data-name="Group 4351">
                  <rect id="Rectangle_258" data-name="Rectangle 258" width="14.43" height="7.628" rx="3.814" fill="#ff5722"/>
                </g>
                <g id="Group_4352" data-name="Group 4352" transform="translate(0 18.462)">
                  <rect id="Rectangle_259" data-name="Rectangle 259" width="14.43" height="7.628" rx="3.814" fill="#ff5722"/>
                </g>
                <g id="Group_4353" data-name="Group 4353" transform="translate(0 36.923)">
                  <rect id="Rectangle_260" data-name="Rectangle 260" width="14.43" height="7.628" rx="3.814" fill="#ff5722"/>
                </g>
              </g>
              <g id="Group_4355" data-name="Group 4355">
                <path id="Path_1335" data-name="Path 1335" d="M1259.937-1388.754l-1.05-1.05a.521.521,0,0,1,.014-.75l29.375-27.276a.521.521,0,0,1,.354-.139h142.433a.521.521,0,0,1,.355.139l29,26.931a.521.521,0,0,1,.033.73l-1.234,1.374a.521.521,0,0,1-.744.031l-24.547-23.113a.521.521,0,0,0-.862.508l7.493,29.353a.521.521,0,0,1-.5.65h-160.6a.521.521,0,0,1-.5-.654l7.837-29.538a.521.521,0,0,0-.856-.516l-25.267,23.337A.521.521,0,0,1,1259.937-1388.754Z" transform="translate(-1258.734 1417.97)" fill="#fdbda9"/>
              </g>
            </g>
          </g>
          <g id="Group_4372" data-name="Group 4372" transform="translate(28.787 57.933)">
            <g id="Group_4364" data-name="Group 4364" transform="translate(18.23)">
              <g id="Group_4358" data-name="Group 4358">
                <path id="Path_1336" data-name="Path 1336" d="M1103.96-1260.2s-.839,10.067-19,7.985c-.146-.017-.29-.039-.434-.066-1.4-.27-8.3-1.828-9.079-6.491a5.129,5.129,0,0,1,1.612-4.517,14.345,14.345,0,0,0,3.735-15.081s-2.738-9.453,6.566-21.64a5.364,5.364,0,0,1,.5-.573c1.179-1.161,5.472-4.8,9.143-.453C1097.006-1301.034,1108.182-1291.207,1103.96-1260.2Z" transform="translate(-1075.384 1303.115)" fill="#fdbda9"/>
              </g>
              <g id="Group_4363" data-name="Group 4363" transform="translate(10.923 11.834)">
                <g id="Group_4359" data-name="Group 4359" transform="translate(3.397)">
                  <path id="Path_1337" data-name="Path 1337" d="M1108.618-1226.984l-.414-.138c.019-.058,1.923-5.976,2.135-22.576.212-16.651,0-26.188,0-26.283l.436-.01c0,.094.212,9.64,0,26.3C1110.563-1233,1108.637-1227.043,1108.618-1226.984Z" transform="translate(-1108.204 1275.991)" fill="#ff5722"/>
                </g>
                <g id="Group_4360" data-name="Group 4360" transform="translate(5.519 20.746)">
                  <path id="Path_1338" data-name="Path 1338" d="M1113.245-1217.174l-.178-.4c.058-.026,5.811-2.685,7.282-10.87l.429.077a16.567,16.567,0,0,1-4.329,8.781A11.539,11.539,0,0,1,1113.245-1217.174Z" transform="translate(-1113.067 1228.442)" fill="#ff5722"/>
                </g>
                <g id="Group_4361" data-name="Group 4361" transform="translate(0 14.884)">
                  <path id="Path_1339" data-name="Path 1339" d="M1105.975-1235.765a8.352,8.352,0,0,1-5.557-6l.421-.113a7.89,7.89,0,0,0,5.238,5.689Z" transform="translate(-1100.418 1241.878)" fill="#ff5722"/>
                </g>
                <g id="Group_4362" data-name="Group 4362" transform="translate(5.742 2.854)">
                  <path id="Path_1340" data-name="Path 1340" d="M1113.783-1261.9l-.2-.385c.059-.032,5.936-3.2,5.874-7.159l.436-.006C1119.955-1265.227,1114.035-1262.032,1113.783-1261.9Z" transform="translate(-1113.578 1269.449)" fill="#ff5722"/>
                </g>
              </g>
            </g>
            <g id="Group_4371" data-name="Group 4371" transform="translate(0 17.221)">
              <g id="Group_4365" data-name="Group 4365">
                <path id="Path_1341" data-name="Path 1341" d="M1054.079-1232.889s-.6,7.214-13.615,5.722c-.1-.012-.208-.028-.311-.048-1.006-.193-5.95-1.31-6.506-4.651a3.674,3.674,0,0,1,1.155-3.236,10.281,10.281,0,0,0,2.676-10.808s-1.962-6.774,4.706-15.508a3.95,3.95,0,0,1,.361-.411c.845-.832,3.922-3.442,6.552-.325C1049.1-1262.153,1057.1-1255.11,1054.079-1232.889Z" transform="translate(-1033.601 1263.644)" fill="#ff5722"/>
              </g>
              <g id="Group_4370" data-name="Group 4370" transform="translate(7.768 8.479)">
                <g id="Group_4366" data-name="Group 4366" transform="translate(2.435)">
                  <path id="Path_1342" data-name="Path 1342" d="M1057.4-1209.069l-.415-.138c.014-.042,1.376-4.279,1.527-16.16.152-11.932,0-18.765,0-18.833l.436-.01c0,.068.152,6.908,0,18.848C1058.8-1213.392,1057.457-1209.24,1057.4-1209.069Z" transform="translate(-1056.986 1244.209)" fill="#ffede6"/>
                </g>
                <g id="Group_4367" data-name="Group 4367" transform="translate(3.99 14.857)">
                  <path id="Path_1343" data-name="Path 1343" d="M1060.725-1202.015l-.177-.4c.041-.019,4.135-1.914,5.182-7.744l.429.077C1065.069-1204.012,1060.9-1202.093,1060.725-1202.015Z" transform="translate(-1060.548 1210.157)" fill="#ffede6"/>
                </g>
                <g id="Group_4368" data-name="Group 4368" transform="translate(0 10.651)">
                  <path id="Path_1344" data-name="Path 1344" d="M1055.432-1215.341a5.941,5.941,0,0,1-4.027-4.343l.421-.114a5.513,5.513,0,0,0,3.709,4.033Z" transform="translate(-1051.404 1219.798)" fill="#ffede6"/>
                </g>
                <g id="Group_4369" data-name="Group 4369" transform="translate(4.145 2.045)">
                  <path id="Path_1345" data-name="Path 1345" d="M1061.11-1234.055l-.2-.385c.042-.022,4.221-2.278,4.177-5.074l.436-.007C1065.566-1236.458,1061.292-1234.151,1061.11-1234.055Z" transform="translate(-1060.905 1239.521)" fill="#ffede6"/>
                </g>
              </g>
            </g>
          </g>
          <g id="Group_4387" data-name="Group 4387" transform="translate(382.947 57.933)">
            <g id="Group_4379" data-name="Group 4379" transform="translate(18.23)">
              <g id="Group_4373" data-name="Group 4373">
                <path id="Path_1346" data-name="Path 1346" d="M1915.688-1260.2s-.839,10.067-19,7.985c-.146-.017-.29-.039-.435-.066-1.4-.27-8.3-1.828-9.08-6.491a5.13,5.13,0,0,1,1.612-4.517,14.346,14.346,0,0,0,3.735-15.081s-2.738-9.453,6.566-21.64a5.391,5.391,0,0,1,.5-.573c1.179-1.161,5.472-4.8,9.143-.453C1908.734-1301.034,1919.911-1291.207,1915.688-1260.2Z" transform="translate(-1887.112 1303.115)" fill="#fdbda9"/>
              </g>
              <g id="Group_4378" data-name="Group 4378" transform="translate(10.922 11.834)">
                <g id="Group_4374" data-name="Group 4374" transform="translate(3.397)">
                  <path id="Path_1347" data-name="Path 1347" d="M1920.347-1226.984l-.414-.138c.019-.058,1.923-5.976,2.135-22.576.213-16.651,0-26.188,0-26.283l.436-.01c0,.094.213,9.64,0,26.3C1922.292-1233,1920.366-1227.043,1920.347-1226.984Z" transform="translate(-1919.933 1275.991)" fill="#ff5722"/>
                </g>
                <g id="Group_4375" data-name="Group 4375" transform="translate(5.519 20.746)">
                  <path id="Path_1348" data-name="Path 1348" d="M1924.974-1217.174l-.178-.4c.058-.026,5.811-2.685,7.281-10.87l.43.077a16.572,16.572,0,0,1-4.329,8.781A11.528,11.528,0,0,1,1924.974-1217.174Z" transform="translate(-1924.796 1228.442)" fill="#ff5722"/>
                </g>
                <g id="Group_4376" data-name="Group 4376" transform="translate(0 14.884)">
                  <path id="Path_1349" data-name="Path 1349" d="M1917.7-1235.765a8.352,8.352,0,0,1-5.557-6l.421-.113a7.892,7.892,0,0,0,5.238,5.689Z" transform="translate(-1912.146 1241.878)" fill="#ff5722"/>
                </g>
                <g id="Group_4377" data-name="Group 4377" transform="translate(5.742 2.854)">
                  <path id="Path_1350" data-name="Path 1350" d="M1925.511-1261.9l-.2-.385c.059-.032,5.936-3.2,5.874-7.159l.436-.006C1931.683-1265.227,1925.764-1262.032,1925.511-1261.9Z" transform="translate(-1925.307 1269.449)" fill="#ff5722"/>
                </g>
              </g>
            </g>
            <g id="Group_4386" data-name="Group 4386" transform="translate(0 17.221)">
              <g id="Group_4380" data-name="Group 4380">
                <path id="Path_1351" data-name="Path 1351" d="M1865.807-1232.889s-.6,7.214-13.615,5.722c-.1-.012-.208-.028-.311-.048-1.007-.193-5.95-1.31-6.507-4.651a3.676,3.676,0,0,1,1.155-3.236,10.281,10.281,0,0,0,2.677-10.808s-1.962-6.774,4.705-15.508a3.939,3.939,0,0,1,.361-.411c.845-.832,3.921-3.442,6.552-.325C1860.824-1262.153,1868.834-1255.11,1865.807-1232.889Z" transform="translate(-1845.329 1263.644)" fill="#ff5722"/>
              </g>
              <g id="Group_4385" data-name="Group 4385" transform="translate(7.768 8.479)">
                <g id="Group_4381" data-name="Group 4381" transform="translate(2.435)">
                  <path id="Path_1352" data-name="Path 1352" d="M1869.129-1209.069l-.414-.138c.014-.042,1.376-4.279,1.527-16.16.152-11.932,0-18.765,0-18.833l.437-.01c0,.068.152,6.908,0,18.848C1870.526-1213.392,1869.186-1209.24,1869.129-1209.069Z" transform="translate(-1868.715 1244.209)" fill="#ffede6"/>
                </g>
                <g id="Group_4382" data-name="Group 4382" transform="translate(3.989 14.857)">
                  <path id="Path_1353" data-name="Path 1353" d="M1872.454-1202.015l-.178-.4c.041-.019,4.135-1.914,5.183-7.744l.43.077C1876.8-1204.012,1872.631-1202.093,1872.454-1202.015Z" transform="translate(-1872.276 1210.157)" fill="#ffede6"/>
                </g>
                <g id="Group_4383" data-name="Group 4383" transform="translate(0 10.651)">
                  <path id="Path_1354" data-name="Path 1354" d="M1867.16-1215.341a5.941,5.941,0,0,1-4.027-4.343l.421-.114a5.512,5.512,0,0,0,3.709,4.033Z" transform="translate(-1863.133 1219.798)" fill="#ffede6"/>
                </g>
                <g id="Group_4384" data-name="Group 4384" transform="translate(4.145 2.045)">
                  <path id="Path_1355" data-name="Path 1355" d="M1872.839-1234.055l-.2-.385c.042-.022,4.221-2.278,4.176-5.074l.437-.007C1877.295-1236.458,1873.021-1234.151,1872.839-1234.055Z" transform="translate(-1872.634 1239.521)" fill="#ffede6"/>
                </g>
              </g>
            </g>
          </g>
        </g>
      </g>
    </g>
  </g>
</svg>
