<svg width="24" height="24" viewBox="0 0 24 24" fill="none" xmlns="http://www.w3.org/2000/svg">
<path d="M23.8883 14.9435C23.2558 11.8762 21.4648 9.82645 18.4923 8.82341C18.3547 8.77692 18.3162 8.70977 18.3035 8.57829C18.2693 8.22093 18.2411 7.8617 18.1749 7.50951C17.1305 1.97167 11.4217 -1.39715 6.03699 0.561498C0.705299 2.50042 -1.583 8.71165 1.17536 13.6653C1.22795 13.7597 1.24345 13.9043 1.21574 14.0095C0.967798 14.944 0.705768 15.8747 0.448435 16.8069C0.314602 17.291 0.181709 17.7752 0.0408332 18.2875C0.115028 18.2696 0.151656 18.2616 0.187344 18.2518C1.56276 17.8724 2.93772 17.4911 4.31455 17.1168C4.40987 17.091 4.54042 17.083 4.61978 17.1276C5.84305 17.8188 7.15461 18.2109 8.55445 18.3039C8.72444 18.3152 8.78454 18.3823 8.83714 18.5382C9.72935 21.197 11.5241 22.9303 14.2144 23.7187C14.6821 23.8558 15.1752 23.9084 15.656 24C16.0467 24 16.4369 24 16.8276 24C17.2479 23.9249 17.6823 23.8929 18.0857 23.7647C18.7135 23.5652 19.3268 23.3153 19.9325 23.0547C20.1232 22.9725 20.2763 22.9392 20.4787 22.997C21.5939 23.3158 22.7134 23.6201 23.832 23.9291C23.8611 23.9371 23.8907 23.9413 23.9494 23.9535C23.9278 23.8568 23.9137 23.7765 23.8921 23.699C23.5883 22.6034 23.2859 21.5079 22.9769 20.4138C22.9341 20.2626 22.9426 20.1405 23.0229 19.9977C23.5455 19.0689 23.8559 18.0715 23.9578 17.0097C23.9635 16.9487 23.9846 16.8895 23.9982 16.8294C23.9982 16.4387 23.9982 16.0485 23.9982 15.6578C23.9625 15.4197 23.9372 15.1793 23.8883 14.9435ZM4.96492 15.6831C4.79869 15.5775 4.65687 15.5502 4.46575 15.6061C3.68013 15.8353 2.88982 16.0475 2.05301 16.279C2.27607 15.4723 2.47893 14.7055 2.70386 13.9452C2.77336 13.7095 2.75364 13.5306 2.61934 13.316C-0.0798508 9.00561 1.93421 3.40626 6.7564 1.79276C11.1724 0.314965 15.9631 3.16865 16.7901 7.7706C17.5391 11.9387 14.8441 15.9395 10.7061 16.7665C8.65541 17.1764 6.73386 16.804 4.96492 15.6831ZM21.485 20.295C21.6484 20.8289 21.7874 21.3698 21.9471 21.9484C21.3662 21.7868 20.8182 21.6469 20.2786 21.4788C20.0556 21.4093 19.8884 21.4436 19.6945 21.5675C17.2484 23.1317 14.1937 22.8955 12.0148 20.9749C11.1855 20.2438 10.5953 19.3487 10.2248 18.272C12.3374 17.9968 14.1505 17.1295 15.6438 15.6334C17.1315 14.1429 17.9946 12.3359 18.2693 10.2298C19.0065 10.4698 19.647 10.8295 20.2242 11.3005C22.7656 13.3747 23.337 16.9266 21.5681 19.6892C21.4376 19.8944 21.4155 20.0686 21.485 20.295Z" fill="#ffffff"/>
<path d="M11.2481 5.14979C10.2601 4.04908 8.57709 3.9068 7.41861 4.83752C6.72879 5.39163 6.37848 6.11855 6.35547 7.01875C6.83163 7.01875 7.28713 7.01875 7.75014 7.01875C7.76094 6.94408 7.76987 6.88304 7.77832 6.82199C7.86942 6.17255 8.43433 5.65929 9.09034 5.63018C9.67216 5.60435 10.2084 5.93119 10.4451 6.45665C10.6865 6.99151 10.5794 7.61606 10.146 8.03165C9.64446 8.51251 9.12415 8.97364 8.61512 9.44651C8.55502 9.5024 8.47143 9.57753 8.47002 9.64515C8.45828 10.1899 8.46345 10.7346 8.46345 11.2892C8.9382 11.2892 9.38853 11.2892 9.86798 11.2892C9.86798 10.9882 9.85577 10.6923 9.87455 10.3988C9.8816 10.289 9.93513 10.1561 10.0126 10.0805C10.3873 9.71559 10.7907 9.37983 11.1598 9.01027C12.215 7.9537 12.2478 6.26365 11.2481 5.14979Z" fill="#ffffff"/>
<path d="M8.47852 14.0983C8.94575 14.0983 9.39515 14.0983 9.85065 14.0983C9.85065 13.6297 9.85065 13.1742 9.85065 12.7116C9.38951 12.7116 8.94529 12.7116 8.47852 12.7116C8.47852 13.1864 8.47852 13.6419 8.47852 14.0983Z" fill="#ffffff"/>
<path d="M20.3632 16.6698H15.6152V17.1863H20.3632V16.6698Z" fill="#ffffff"/>
<path d="M20.3632 18.4532H15.6152V18.9697H20.3632V18.4532Z" fill="#ffffff"/>
</svg>
