<?xml version="1.0" encoding="utf-8"?>
<!-- Generator: Adobe Illustrator 25.4.1, SVG Export Plug-In . SVG Version: 6.00 Build 0)  -->
<svg version="1.1" id="Layer_1" xmlns="http://www.w3.org/2000/svg" xmlns:xlink="http://www.w3.org/1999/xlink" x="0px" y="0px"
	 viewBox="0 0 512 512" style="enable-background:new 0 0 512 512;" xml:space="preserve">
<style type="text/css">
	.st0{fill:#6B6B6B;}
</style>
<path class="st0" d="M423.4,327.1c0-18.4-14.9-33.3-33.3-33.3H289.5c13.9-33.7,14-71.5,0.1-105.3c-0.1-0.3-0.3-0.6-0.4-0.9
	c-8.4-15.2-27.6-20.6-42.7-12.2c-6,3.3-10.7,8.5-13.5,14.8c-0.4,0.8-0.6,1.7-0.7,2.7l-2.4,33.7c-3.6,19.4-14,36.8-29.5,49.1
	c-6.2,2.2-17.5,9.8-47,37.9v-0.8c0-9.2-7.5-16.7-16.7-16.7h-84c-9.2,0-16.7,7.5-16.7,16.7v167.6c0,9.2,7.5,16.7,16.7,16.7h84
	c9.2,0,16.7-7.5,16.7-16.7v-0.7c23.1,5.1,35.1,11.1,49.2,24.2c5.5,5.3,12.9,8.2,20.5,8.1h130.2c18.4,0,33.3-14.9,33.3-33.2
	c0-7.8-2.7-15.3-7.7-21.3c10.4-6.2,17.8-17.4,17.8-29.3c0-7.4-2.5-14.6-7-20.4c10.6-6.3,18.2-17.8,18.2-30.1
	c0-6.9-2.2-13.7-6.2-19.3C414.8,353.4,423.4,341,423.4,327.1z M137.5,480.5c0,0.4-0.3,0.7-0.7,0.7h-84c-0.4,0-0.7-0.3-0.7-0.7V312.9
	c0-0.4,0.3-0.7,0.7-0.7h84c0.4,0,0.7,0.3,0.7,0.7L137.5,480.5z M390.2,344.3h-27.8c-4.4,0-8,3.6-8,8s3.6,8,8,8h12.3
	c9.5,0,17.3,7.7,17.3,17.3c0,9-8.9,18.2-18,18.9c-3.4-1.1-6.9-1.7-10.4-1.7c-4.4,0-8,3.6-8,8s3.6,8,8,8c2,0,4,0.4,5.9,1
	c0.2,0.1,0.4,0.2,0.6,0.3c6.5,2.7,10.7,9,10.7,16c0,8.8-9.2,17.8-18.7,18.4c-2.8-0.8-5.8-1.2-8.7-1.2c-4.4,0-8,3.6-8,8s3.6,8,8,8
	c1.7,0,3.3,0.2,4.9,0.7c0.2,0.1,0.4,0.1,0.6,0.2c9,3,13.9,12.8,10.9,21.9c-2.4,7-9,11.8-16.4,11.8H223.2c-3.6,0.1-7.1-1.3-9.6-3.8
	c-17-15.8-31.8-23-60.1-28.9V335.9l1.4-1.4c39.3-38.1,48.9-43.1,50.9-43.7c1.2-0.2,2.3-0.8,3.3-1.5c19.3-14.8,32.4-36.3,36.7-60.3
	c0-0.3,0.1-0.6,0.1-0.8l2.3-32.6c4.1-7.5,13.4-10.3,20.9-6.2c2.4,1.3,4.5,3.3,5.9,5.7c13.5,33.4,11.6,71.1-5.2,103
	c-2.1,3.9-0.5,8.7,3.4,10.8c1.1,0.6,2.4,0.9,3.7,0.9h113.3c9.5,0.1,17.2,7.9,17.1,17.4C407.2,336.6,399.6,344.3,390.2,344.3
	L390.2,344.3z M110.4,338.5v1c0,4.4-3.6,8-8,8s-8-3.6-8-8v-1c0-4.4,3.6-8,8-8S110.4,334,110.4,338.5z M350.4,68.6
	c-1-3-3.7-5.2-6.9-5.5l-57.3-5.4L263.3,4.8c-1.8-4.1-6.5-5.9-10.5-4.2c-1.9,0.8-3.4,2.3-4.2,4.2l-22.9,52.9l-57.3,5.4
	c-4.4,0.4-7.6,4.3-7.2,8.7c0.2,2,1.1,3.9,2.7,5.3l43.2,38.1l-12.6,56.2c-1,4.3,1.7,8.6,6.1,9.6c2,0.4,4.1,0.1,5.8-0.9l49.6-29.3
	l49.6,29.3c3.8,2.3,8.7,1,11-2.8c1-1.8,1.4-3.8,0.9-5.8l-12.6-56.2l43.2-38.1C350.5,74.9,351.4,71.6,350.4,68.6z M290.7,106.3
	c-2.2,1.9-3.2,4.9-2.5,7.8l9.6,42.8l-37.7-22.3c-2.5-1.5-5.6-1.5-8.1,0l-37.7,22.3l9.6-42.8c0.6-2.8-0.3-5.8-2.5-7.8l-32.9-29
	l43.6-4.1c2.9-0.3,5.4-2.1,6.6-4.8L256,28.2l17.4,40.2c1.2,2.7,3.7,4.5,6.6,4.8l43.6,4.1L290.7,106.3z M491.2,115.5
	c-1-3-3.7-5.2-6.9-5.5l-40.4-3.8l-16.1-37.3c-1.8-4.1-6.5-5.9-10.5-4.2c-1.9,0.8-3.4,2.3-4.2,4.2l-16.1,37.3l-40.4,3.8
	c-4.4,0.4-7.6,4.3-7.2,8.7c0.2,2,1.1,3.9,2.7,5.3l30.5,26.8l-8.9,39.6c-1,4.3,1.7,8.6,6.1,9.6c2,0.4,4.1,0.1,5.8-0.9l34.9-20.7
	l34.9,20.7c3.8,2.3,8.7,1,11-2.8c1-1.8,1.4-3.8,0.9-5.8l-8.9-39.6l30.5-26.8C491.3,121.8,492.2,118.5,491.2,115.5L491.2,115.5z
	 M444.3,141.9c-2.2,1.9-3.2,4.9-2.5,7.8l5.9,26.2l-23.1-13.7c-2.5-1.5-5.6-1.5-8.1,0l-23.1,13.7l5.9-26.2c0.6-2.8-0.3-5.8-2.5-7.8
	l-20.1-17.7l26.7-2.5c2.9-0.3,5.4-2.1,6.6-4.8l10.6-24.6l10.6,24.6c1.2,2.7,3.7,4.5,6.6,4.8l26.7,2.5L444.3,141.9z M155.3,110
	l-40.4-3.8L98.8,68.9c-1.8-4.1-6.5-5.9-10.5-4.2c-1.9,0.8-3.4,2.3-4.2,4.2L68,106.2L27.6,110c-4.4,0.4-7.6,4.3-7.2,8.7
	c0.2,2,1.1,3.9,2.7,5.3l30.5,26.8l-8.9,39.6c-1,4.3,1.7,8.6,6.1,9.6c2,0.4,4.1,0.1,5.8-0.9l34.9-20.7l34.9,20.7
	c3.8,2.3,8.7,1,11-2.8c1-1.8,1.4-3.8,0.9-5.8l-8.9-39.6l30.5-26.8c3.3-2.9,3.6-8,0.7-11.3C159.2,111.1,157.4,110.2,155.3,110
	L155.3,110z M115.3,141.9c-2.2,1.9-3.2,4.9-2.5,7.8l5.9,26.2l-23.1-13.7c-2.5-1.5-5.6-1.5-8.2,0l-23.1,13.7l5.9-26.2
	c0.6-2.8-0.3-5.8-2.5-7.8l-20.1-17.7l26.7-2.5c2.9-0.3,5.4-2.1,6.6-4.8l10.6-24.6l10.6,24.6c1.2,2.7,3.7,4.5,6.6,4.8l26.7,2.5
	L115.3,141.9z"/>
</svg>
