<svg width="23" height="24" viewBox="0 0 23 24" fill="none" xmlns="http://www.w3.org/2000/svg">
<path d="M18.5278 0C19.3943 0.349091 19.6884 0.998441 19.6811 1.9148C19.652 5.46286 19.6697 9.01091 19.6697 12.559C19.6697 12.747 19.6697 12.9351 19.6697 13.1584C19.252 13.1584 18.8665 13.1584 18.4198 13.1584C18.4198 12.9662 18.4198 12.7813 18.4198 12.5964C18.4198 9.03065 18.4115 5.46493 18.4291 1.90026C18.4312 1.41195 18.3065 1.2426 17.7922 1.24468C12.4759 1.2613 7.16056 1.26026 1.8442 1.24571C1.39225 1.24468 1.25199 1.36727 1.25303 1.82961C1.26757 8.02597 1.26757 14.2223 1.25303 20.4187C1.25199 20.8925 1.41199 20.9943 1.85251 20.9922C5.10757 20.9756 8.36368 20.9953 11.6187 20.9693C12.0904 20.9652 12.3138 21.0992 12.3928 21.548C12.4302 21.7621 12.5258 21.9668 12.6141 22.2327C12.4021 22.2327 12.2348 22.2327 12.0676 22.2327C8.62134 22.2327 5.17614 22.2338 1.72991 22.2327C0.569391 22.2327 0.0145863 21.681 0.0145863 20.5257C0.0135473 14.294 0.0260148 8.06234 4.08121e-05 1.83169C-0.00411503 0.914285 0.308612 0.310649 1.16991 0C6.95588 0 12.7419 0 18.5278 0Z" fill="white"/>
<path d="M19.8793 24C19.5334 23.7631 19.1967 23.5075 19.2902 23.0213C19.363 22.6379 19.5812 22.373 20.0051 22.3262C20.4134 22.2816 20.7344 22.4332 20.8871 22.799C21.0336 23.1501 20.9858 23.5106 20.671 23.7839C20.5838 23.8597 20.4902 23.9283 20.3999 24C20.2253 24 20.0518 24 19.8793 24Z" fill="white"/>
<path d="M16.1374 24C15.7779 23.7735 15.4507 23.5096 15.5348 23.0275C15.6013 22.6442 15.8257 22.3803 16.2465 22.3273C16.6559 22.2764 16.979 22.4322 17.1338 22.7948C17.2813 23.1429 17.2377 23.5055 16.925 23.7829C16.8387 23.8597 16.7463 23.9283 16.6569 24C16.4844 24 16.3109 24 16.1374 24Z" fill="white"/>
<path d="M15.6348 20.2254C15.6867 20.9382 15.9184 21.1854 16.5553 21.1906C18.0088 21.201 19.4623 21.1979 20.9158 21.1927C21.1922 21.1917 21.4987 21.201 21.4727 21.5429C21.4634 21.6675 21.1309 21.8618 20.9439 21.8639C19.4561 21.8784 17.9683 21.8743 16.4805 21.8338C15.5548 21.8088 15.2296 21.5512 14.9688 20.6379C14.5376 19.1335 14.1449 17.6177 13.747 16.1029C13.508 15.1927 13.4197 15.1148 12.4743 15.1096C12.2841 15.1086 12.0847 15.1356 11.907 15.0857C11.7813 15.0504 11.5839 14.8841 11.5984 14.8177C11.6296 14.6795 11.7605 14.4956 11.8872 14.4592C13.0135 14.1403 13.8031 14.5465 14.3361 15.6416C14.3974 15.7673 14.6571 15.8608 14.8254 15.8618C17.1101 15.8764 19.3937 15.8712 21.6784 15.8712C22.5657 15.8712 22.5854 15.8909 22.3787 16.7418C22.1428 17.7112 21.8685 18.6722 21.668 19.6488C21.5735 20.107 21.3543 20.2338 20.9252 20.2296C19.3501 20.2151 17.7761 20.2244 16.201 20.2244C16.013 20.2254 15.8259 20.2254 15.6348 20.2254Z" fill="white"/>
<path d="M9.79643 11.7465C8.23903 11.7465 6.68059 11.7486 5.12319 11.7455C4.56838 11.7444 4.2889 11.5294 4.29202 11.1221C4.29617 10.7159 4.58085 10.4977 5.13358 10.4966C8.28371 10.4946 11.4338 10.4946 14.584 10.4966C15.1398 10.4966 15.411 10.7127 15.4099 11.1315C15.4089 11.547 15.144 11.7455 14.5736 11.7455C12.9808 11.7476 11.3881 11.7465 9.79643 11.7465Z" fill="white"/>
<path d="M9.85147 6.54543C8.27641 6.54543 6.70134 6.54647 5.12628 6.54543C4.56939 6.54439 4.29199 6.33452 4.29199 5.92309C4.29199 5.51374 4.57251 5.29972 5.12836 5.29868C8.27849 5.2966 11.4286 5.2966 14.5787 5.29868C15.1471 5.29868 15.4099 5.50127 15.411 5.92309C15.412 6.33868 15.1419 6.54439 14.5777 6.54439C13.0016 6.54751 11.4265 6.54543 9.85147 6.54543Z" fill="white"/>
<path d="M7.01372 16.9496C6.3384 16.9496 5.66203 16.9424 4.98671 16.9528C4.59294 16.959 4.34255 16.7782 4.30099 16.4C4.25424 15.9772 4.53476 15.7195 4.91398 15.7122C6.31658 15.6842 7.72022 15.6842 9.12281 15.7112C9.51034 15.7185 9.76177 15.9824 9.72333 16.4052C9.68593 16.8063 9.42515 16.9559 9.04073 16.9517C8.36541 16.9444 7.68905 16.9496 7.01372 16.9496Z" fill="white"/>
</svg>
