<svg width="24" height="16" viewBox="0 0 24 16" fill="none" xmlns="http://www.w3.org/2000/svg">
<path d="M24 14.0569C23.8663 14.3799 23.779 14.7345 23.5892 15.0189C23.1562 15.6662 22.5009 15.8966 21.7456 15.896C17.2475 15.8934 12.7489 15.8947 8.25084 15.8947C6.24351 15.8947 4.23681 15.8953 2.22948 15.8947C1.72637 15.8947 1.25383 15.7898 0.844339 15.4745C0.284553 15.0433 0.0056149 14.4629 0.00497805 13.7589C-0.000116702 9.88446 -0.00330092 6.00999 0.0056149 2.13553C0.00879912 0.869778 0.929039 0.00170722 2.22948 0.00106373C5.85312 -0.000866744 9.47677 0.00042024 13.1004 0.00042024C15.9821 0.00042024 18.8639 0.00042024 21.7456 0.00042024C22.2901 0.00042024 22.797 0.114962 23.2281 0.477248C23.6281 0.81315 23.8771 1.23592 23.9637 1.75522C23.9688 1.78418 23.9879 1.81056 24 1.83823C24 5.91089 24 9.9842 24 14.0569ZM23.3899 4.92185C15.7822 4.92185 8.20944 4.92185 0.612528 4.92185C0.612528 5.01837 0.612528 5.10267 0.612528 5.18761C0.612528 8.00482 0.611891 10.822 0.612528 13.6399C0.612528 14.665 1.21435 15.2782 2.22629 15.2782C8.73994 15.2795 15.2536 15.2795 21.7679 15.2763C21.9455 15.2763 22.1296 15.2615 22.3009 15.2164C22.9747 15.0401 23.388 14.4693 23.3893 13.7184C23.3918 10.8458 23.3905 7.97328 23.3905 5.10074C23.3899 5.04733 23.3899 4.99392 23.3899 4.92185ZM0.620807 3.39227C8.22027 3.39227 15.7987 3.39227 23.3835 3.39227C23.3835 2.91608 23.3982 2.45856 23.3765 2.00297C23.3676 1.81249 23.309 1.61044 23.2243 1.43927C22.925 0.835029 22.4034 0.614955 21.7602 0.615598C15.2536 0.616885 8.74694 0.616242 2.24094 0.616242C2.19381 0.616242 2.14732 0.614955 2.1002 0.617529C1.27676 0.659356 0.68258 1.19088 0.626538 1.98173C0.593422 2.44376 0.620807 2.90965 0.620807 3.39227Z" fill="white"/>
<path d="M5.50974 12.1618C4.94741 12.1618 4.38507 12.1643 3.82274 12.1611C3.04197 12.1566 2.5516 11.6656 2.54141 10.8754C2.53568 10.4572 2.53568 10.0389 2.54141 9.62061C2.5516 8.8362 3.04452 8.33749 3.82465 8.33363C4.94932 8.32784 6.07335 8.32784 7.19801 8.33363C7.97624 8.33749 8.4717 8.83941 8.47998 9.62254C8.48444 10.0408 8.48444 10.4591 8.47998 10.8774C8.47107 11.6618 7.9756 12.1566 7.1961 12.1605C6.63441 12.1643 6.07207 12.1618 5.50974 12.1618ZM5.49764 11.5459C6.06762 11.5459 6.63759 11.5479 7.20757 11.5453C7.62406 11.5434 7.86543 11.3059 7.86989 10.8902C7.87434 10.4642 7.87434 10.0382 7.86989 9.61225C7.86543 9.19526 7.62661 8.95267 7.21139 8.95138C6.07908 8.94752 4.94677 8.94816 3.81446 8.95138C3.39924 8.95267 3.1566 9.19526 3.15151 9.60903C3.14641 10.035 3.14641 10.461 3.15151 10.887C3.1566 11.3027 3.3986 11.5434 3.81128 11.5453C4.37361 11.5479 4.93531 11.5459 5.49764 11.5459Z" fill="white"/>
<path d="M16.2592 8.95003C14.6747 8.95003 13.0896 8.95003 11.5051 8.94939C11.4192 8.94939 11.316 8.97384 11.2517 8.93459C11.1562 8.87668 11.0288 8.77565 11.0237 8.68684C11.018 8.58324 11.1109 8.45197 11.1975 8.37411C11.2542 8.32263 11.3752 8.33421 11.4676 8.33421C14.6684 8.33228 17.8685 8.33228 21.0693 8.33421C21.154 8.33421 21.2654 8.32198 21.317 8.36896C21.4049 8.44811 21.5132 8.57552 21.5049 8.67269C21.4966 8.76921 21.366 8.87281 21.2661 8.93652C21.2036 8.97642 21.0986 8.95003 21.0132 8.95003C19.4281 8.95003 17.8437 8.95003 16.2592 8.95003Z" fill="white"/>
<path d="M13.7016 10.7421C14.4423 10.7421 15.1829 10.7415 15.9242 10.7428C16.0013 10.7428 16.1051 10.7254 16.1509 10.7672C16.2395 10.8483 16.3464 10.9648 16.3484 11.0684C16.3503 11.1585 16.2274 11.2621 16.1414 11.3386C16.1044 11.3715 16.0217 11.3567 15.9592 11.3567C14.4467 11.3573 12.9336 11.3573 11.4211 11.3573C11.4135 11.3573 11.4058 11.3573 11.3975 11.3573C11.1402 11.3528 11.0071 11.2511 11.004 11.0562C11.0008 10.8528 11.1377 10.7453 11.409 10.7421C11.5338 10.7408 11.6586 10.7421 11.7835 10.7421C12.4228 10.7421 13.0622 10.7421 13.7016 10.7421Z" fill="white"/>
</svg>
