<svg width="24" height="21" viewBox="0 0 24 21" fill="none" xmlns="http://www.w3.org/2000/svg">
<path d="M24.001 10.9694C23.842 11.1201 23.6525 11.2501 23.479 11.3864C23.27 11.5522 23.0554 11.7117 22.8387 11.8691C22.436 12.1618 22.0249 12.4452 21.6205 12.7358C21.541 12.5595 21.3691 12.4088 21.1897 12.3054C20.919 12.1484 20.5916 12.0679 20.2617 12.0266C20.4652 11.7967 21.7183 11.2495 22.012 11.051C22.3017 10.8556 22.6162 10.6785 22.9912 10.6549C23.3419 10.6326 23.7719 10.7202 24.001 10.9694Z" fill="white"/>
<path d="M23.5648 10.3505C23.5369 10.4257 23.4746 10.4939 23.4233 10.5574C23.3249 10.5401 23.2243 10.5304 23.126 10.5254C22.7117 10.5043 22.3414 10.6773 22.0185 10.8856C21.6943 11.0936 20.3162 11.7191 20.0976 12.0057C20.0967 12.0069 20.0959 12.0075 20.0959 12.0084C19.9874 11.9985 19.88 11.9925 19.7751 11.9879C19.7399 11.9864 19.7037 11.9854 19.668 11.9845C19.9126 11.7535 22.1266 10.3804 22.5049 10.2586C22.84 10.1505 23.2933 10.1152 23.5648 10.3505Z" fill="white"/>
<path d="M22.3251 10.1809C22.0352 10.2935 19.9924 11.5944 19.474 11.9837C19.2023 11.9852 18.9313 12.001 18.6602 12.0182C18.9006 11.8086 20.9135 10.3697 21.2716 10.249C21.5985 10.1385 22.1306 10.0174 22.3251 10.1809Z" fill="white"/>
<path d="M18.7012 11.763C18.7053 11.7626 18.7095 11.7626 18.7135 11.7626V11.7535C18.7095 11.7567 18.7053 11.7596 18.7012 11.763Z" fill="white"/>
<path d="M18.9515 12.1084C16.7311 12.0719 14.4054 10.6341 13.4923 10.5956C9.86624 10.444 8.125 11.4354 7.6957 11.6975C7.5205 11.8041 7.35629 11.9206 7.19727 12.0408C7.67582 12.8424 8.28832 14.0634 8.71006 15.0737C8.74106 15.058 8.77207 15.0421 8.80352 15.0276C9.26916 14.8059 9.77145 14.7024 10.3013 14.7092C10.84 14.7157 11.3796 14.7989 11.9036 14.9035C12.4895 15.0192 13.0681 15.1597 13.6487 15.293C14.2265 15.4255 14.8074 15.5532 15.3973 15.6394C15.9677 15.7228 16.5784 15.7725 17.1482 15.6605C17.154 15.6597 17.1596 15.659 17.165 15.659C17.706 15.3772 18.1547 14.9894 18.5999 14.6061C18.8215 14.4147 19.0437 14.2227 19.2781 14.043C19.4585 13.9052 19.819 13.7537 20.025 13.6417C19.4564 13.641 18.7083 13.5471 18.1449 13.4828L17.7809 13.4502C17.7631 13.4472 17.7465 13.4472 17.7374 13.4434C17.6407 13.4358 17.5434 13.4299 17.4459 13.4247L17.2024 13.4147C17.1988 13.4125 17.1671 13.4162 17.1641 13.4147C17.0334 13.4118 16.9012 13.4125 16.7701 13.4171L16.6306 13.4235C16.5089 13.4307 16.3883 13.4413 16.2677 13.4558C15.7213 13.523 15.203 13.6689 14.7092 13.8801C14.6234 13.9169 14.5521 13.8116 14.634 13.7689C16.4835 12.8084 18.9116 13.4598 19.3695 13.4953C19.8308 13.5304 20.3174 13.5395 20.7609 13.4058C21.1066 13.3021 21.3996 13.1578 21.3843 12.7358C21.3697 12.3528 20.4975 12.1339 18.9515 12.1084Z" fill="white"/>
<path d="M8.19198 14.8706C7.82824 14.0092 7.29925 12.9675 6.88657 12.2836C6.69506 11.9671 6.52891 11.7275 6.41573 11.618C6.41573 11.618 6.23994 11.6301 6.08789 11.6725C6.24558 11.7867 6.4095 12.0701 6.6461 12.4716C6.67918 12.5287 6.71493 12.588 6.75187 12.6496C7.01993 13.099 7.56953 14.1948 7.95478 15.0059C8.1537 15.4236 8.30917 15.7671 8.35946 15.9054C8.48021 15.8723 8.54444 15.8284 8.54444 15.8284C8.47145 15.5686 8.34611 15.2357 8.19198 14.8706Z" fill="white"/>
<path d="M6.47618 12.6119C6.13321 12.0301 5.91545 11.619 5.70658 11.4658C5.61416 11.3989 0.00726877 14.0588 0.00726877 14.0588L0 20.7892C0 20.7892 7.28376 16.9614 8.35583 16.4819C8.35286 16.469 8.34707 16.4513 8.33906 16.4292C8.16832 15.953 6.94731 13.4115 6.47618 12.6119ZM4.08431 15.592C4.07066 15.5987 4.05568 15.6052 4.04055 15.6107C3.85764 15.6754 3.64892 15.5997 3.5746 15.4408C3.50548 15.2954 3.57327 15.1312 3.72547 15.0545C3.73912 15.0478 3.75365 15.041 3.76923 15.0358C3.95139 14.9704 4.16056 15.0469 4.23502 15.2052C4.30371 15.3506 4.23591 15.5153 4.08431 15.592ZM5.21646 15.1147C5.18634 15.1505 5.14896 15.1787 5.10772 15.1997C4.98816 15.2598 4.83492 15.2568 4.71684 15.1809C4.55811 15.0801 4.5237 14.8856 4.6403 14.7472C4.67041 14.7119 4.70749 14.6833 4.74859 14.6622C4.868 14.6021 5.02124 14.6051 5.13962 14.6811C5.29879 14.7821 5.3332 14.9763 5.21646 15.1147ZM6.21272 14.7054C6.20783 14.7081 6.20353 14.7112 6.19774 14.7132C6.03442 14.7959 5.82229 14.7535 5.71874 14.6141C5.61179 14.4698 5.65867 14.2774 5.82422 14.1842C5.82911 14.1812 5.8343 14.1786 5.8389 14.176C6.00267 14.0934 6.21391 14.1361 6.31775 14.276C6.42545 14.4198 6.37842 14.6119 6.21272 14.7054Z" fill="white"/>
<path d="M4.86732 14.7949C4.82712 14.7698 4.7712 14.7769 4.74182 14.8119C4.7129 14.8465 4.72106 14.8953 4.76155 14.9204C4.80116 14.9464 4.85709 14.9383 4.88631 14.9038C4.91568 14.8689 4.90752 14.8201 4.86732 14.7949Z" fill="white"/>
<path d="M5.09568 14.9415C5.05533 14.9164 4.99985 14.9234 4.97062 14.9581C4.9411 14.9927 4.94986 15.0421 4.98991 15.0672C5.02952 15.0931 5.08544 15.0851 5.11481 15.0501C5.14419 15.0155 5.13603 14.9667 5.09568 14.9415Z" fill="white"/>
<path d="M3.73911 15.2981C3.69372 15.3143 3.67162 15.3598 3.69016 15.3996C3.709 15.4394 3.76196 15.4585 3.80705 15.442C3.85304 15.4259 3.87455 15.3803 3.85601 15.3402C3.83717 15.3006 3.7851 15.2815 3.73911 15.2981Z" fill="white"/>
<path d="M4.00102 15.2042C3.95518 15.2202 3.93322 15.266 3.95206 15.3055C3.9709 15.3454 4.02342 15.3646 4.06896 15.3484C4.11494 15.3318 4.13705 15.2864 4.11821 15.2462C4.09922 15.2067 4.04685 15.1879 4.00102 15.2042Z" fill="white"/>
<path d="M5.84982 14.4466C5.80799 14.4706 5.79598 14.5188 5.82312 14.554C5.85012 14.5905 5.9056 14.6006 5.94714 14.5775C5.98838 14.554 6.00039 14.5052 5.97325 14.4699C5.94654 14.4338 5.89047 14.4233 5.84982 14.4466Z" fill="white"/>
<path d="M6.08981 14.312C6.04828 14.3355 6.03626 14.3843 6.06326 14.4196C6.09011 14.4559 6.14604 14.4662 6.18713 14.4429C6.22851 14.4196 6.24068 14.3706 6.21309 14.3355C6.18653 14.299 6.13105 14.2887 6.08981 14.312Z" fill="white"/>
<path d="M15.6571 9.585C14.3772 9.585 13.1739 9.0865 12.2687 8.18135C11.3637 7.27621 10.8652 6.0727 10.8652 4.7925C10.8652 3.51244 11.3637 2.30894 12.2687 1.40364C13.1737 0.498344 14.3772 0 15.6571 0C16.937 0 18.1404 0.498492 19.0456 1.40364C19.9506 2.30879 20.449 3.51229 20.449 4.7925C20.449 6.07255 19.9506 7.27606 19.0456 8.18135C18.1405 9.0865 16.9372 9.585 15.6571 9.585ZM15.6571 0.222541C13.1375 0.222541 11.0877 2.27259 11.0877 4.7925C11.0877 7.31241 13.1375 9.36245 15.6571 9.36245C18.1767 9.36245 20.2265 7.31241 20.2265 4.7925C20.2265 2.27259 18.1767 0.222541 15.6571 0.222541Z" fill="white"/>
<path d="M15.7088 6.78985C15.4228 6.78985 15.1715 6.74727 14.9552 6.66226C14.7388 6.57725 14.53 6.44195 14.329 6.25635C14.3019 6.2332 14.2798 6.20412 14.2624 6.16941C14.2451 6.13469 14.2363 6.0979 14.2363 6.05918C14.2363 5.99746 14.2586 5.94227 14.3029 5.8939C14.3473 5.84568 14.4023 5.8215 14.4682 5.8215C14.5223 5.8215 14.5705 5.84287 14.6131 5.8853C14.7638 6.03217 14.927 6.14433 15.1029 6.22163C15.2787 6.29893 15.4769 6.33765 15.6972 6.33765C15.8672 6.33765 16.0198 6.31065 16.1551 6.2565C16.2904 6.20234 16.3986 6.12698 16.4797 6.03039C16.5609 5.93381 16.6015 5.82165 16.6015 5.69406C16.6015 5.53947 16.558 5.41203 16.4711 5.31144C16.3842 5.211 16.2643 5.12792 16.1117 5.06219C15.959 4.99647 15.7822 4.93861 15.5812 4.88831C15.4033 4.84588 15.24 4.7947 15.0914 4.73461C14.9426 4.67467 14.8131 4.59931 14.703 4.50851C14.5928 4.41771 14.5078 4.30763 14.448 4.17811C14.3881 4.04859 14.3581 3.89504 14.3581 3.71715C14.3581 3.49684 14.4161 3.30456 14.532 3.14033C14.648 2.97609 14.8092 2.84761 15.016 2.75474C15.2227 2.66201 15.4596 2.61557 15.7261 2.61557C15.9618 2.61557 16.185 2.6543 16.3957 2.73159C16.6064 2.80889 16.7755 2.91526 16.9029 3.05042C16.9802 3.12386 17.0189 3.1973 17.0189 3.27074C17.0189 3.32489 16.9948 3.37607 16.9465 3.42444C16.8982 3.4728 16.8431 3.49684 16.7813 3.49684C16.7387 3.49684 16.7001 3.48334 16.6653 3.45619C16.5996 3.38275 16.5155 3.31702 16.4131 3.25901C16.3106 3.20101 16.2005 3.15472 16.0826 3.11985C15.9647 3.08514 15.8458 3.06763 15.7261 3.06763C15.5483 3.06763 15.3918 3.09374 15.2566 3.14596C15.1213 3.19819 15.016 3.27059 14.9407 3.36331C14.8653 3.45604 14.8276 3.5682 14.8276 3.69965C14.8276 3.84652 14.87 3.96729 14.9552 4.06194C15.0402 4.15675 15.1543 4.23404 15.2973 4.29383C15.4403 4.35377 15.5987 4.40688 15.7726 4.45332C15.9618 4.49976 16.1367 4.55287 16.2972 4.61281C16.4576 4.67274 16.5959 4.74722 16.7117 4.83609C16.8277 4.92511 16.9175 5.03816 16.9813 5.17524C17.045 5.31248 17.0769 5.48161 17.0769 5.68249C17.0769 5.89509 17.017 6.08455 16.8973 6.25071C16.7774 6.41702 16.6141 6.54832 16.4075 6.6449C16.2005 6.74149 15.9676 6.78985 15.7088 6.78985ZM15.9697 7.32321C15.9697 7.38893 15.9475 7.44398 15.9031 7.48848C15.8586 7.53284 15.8016 7.5551 15.7321 7.5551C15.6663 7.5551 15.6112 7.53284 15.5668 7.48848C15.5223 7.44398 15.5002 7.38893 15.5002 7.32321V2.26752C15.5002 2.2018 15.5233 2.14572 15.5698 2.09943C15.6162 2.05299 15.6721 2.02985 15.7378 2.02985C15.8074 2.02985 15.8633 2.05299 15.9059 2.09943C15.9483 2.14586 15.9697 2.20194 15.9697 2.26752V7.32321Z" fill="white"/>
</svg>
