<svg width="28" height="25" viewBox="0 0 28 25" fill="none" xmlns="http://www.w3.org/2000/svg">
<path d="M16.3605 7.41797H13.3517C9.33963 7.41797 5.32631 7.41797 1.3142 7.41797C0.405965 7.41797 0.00121911 7.82028 0.00121911 8.72364C0 12.0677 0 15.4105 0 18.7533C0 19.6371 0.409622 20.0492 1.28982 20.0504C1.67384 20.0516 2.05664 20.0504 2.45408 20.0504H2.61866V24.0381L3.22456 23.5078C3.25991 23.4774 3.29039 23.4517 3.31721 23.4286L3.33428 23.414C3.39889 23.3579 3.44765 23.3176 3.49276 23.2725L4.16937 22.6106C4.93985 21.8572 5.81273 21.0038 6.64295 20.1797C6.74658 20.0772 6.82338 20.0443 6.96358 20.0443C9.52981 20.0504 12.1607 20.0504 14.6367 20.0492H16.3312C17.3139 20.0492 17.6954 19.6627 17.6967 18.6728V8.76387C17.6967 7.8215 17.2968 7.41797 16.3605 7.41797ZM6.96236 19.3141C6.6271 19.3141 6.36987 19.4214 6.12726 19.6615C5.3068 20.4759 4.46927 21.2951 3.65856 22.0876L3.35134 22.3887V19.319H2.98561H2.45529C2.05908 19.319 1.67628 19.319 1.29226 19.319C0.81193 19.3177 0.732687 19.2385 0.732687 18.7533C0.731468 15.4105 0.731468 12.0677 0.731468 8.72364C0.731468 8.22502 0.808272 8.14944 1.31299 8.14944C5.82736 8.14822 10.3405 8.14944 14.8549 8.14944H16.3593C16.8957 8.14944 16.964 8.21893 16.964 8.76509V18.674C16.964 19.2531 16.8994 19.319 16.33 19.319H14.6355C12.1619 19.3202 9.53103 19.3214 6.96236 19.3141Z" fill="white"/>
<path d="M26.7681 0.000914335C21.6917 -0.000304778 16.6153 -0.000304778 11.5389 0.000914335C10.7234 0.000914335 10.2906 0.434919 10.2906 1.25416C10.2906 1.71743 10.2906 2.17947 10.2906 2.65127C10.2918 3.63875 10.293 4.65915 10.2833 5.66248C10.282 5.82462 10.3003 6.03187 10.4588 6.19035C10.6319 6.36347 10.8733 6.36591 10.9928 6.36713C12.9592 6.35493 14.7464 6.35615 16.4568 6.36713C16.8372 6.36956 17.1225 6.40736 17.3517 6.48538C18.2563 6.79138 18.8024 7.56795 18.8097 8.56275C18.8195 9.70872 18.8183 10.8449 18.8073 11.9397C18.8061 12.1043 18.8244 12.314 18.9853 12.4712C19.1474 12.6297 19.3583 12.6395 19.5022 12.6358C20.0654 12.6163 20.5799 12.6175 21.0736 12.6395C21.1578 12.6431 21.2638 12.6907 21.3053 12.7309C22.2708 13.6586 23.2339 14.6132 24.0836 15.4556C24.2068 15.5775 24.3262 15.7141 24.4433 15.8457C24.5006 15.9116 24.5591 15.9774 24.6164 16.0408L24.798 16.2419L25.0248 16.1347L25.1321 16.2554V16.0835L25.3759 15.9676V12.6285H25.5673C25.9696 12.6285 26.3561 12.6297 26.7425 12.6273C27.5642 12.6236 27.9982 12.1945 27.9982 11.3862C28.0006 8.00196 28.0006 4.61892 27.9982 1.23466C28.0006 0.439795 27.563 0.000914335 26.7681 0.000914335ZM25.5697 11.8995H24.6456V14.9838C24.6298 14.968 24.6152 14.9521 24.5993 14.9375C23.7459 14.0926 22.7804 13.1344 21.8136 12.2042C21.6393 12.036 21.3613 11.9202 21.1078 11.9092C20.8359 11.897 20.5628 11.8909 20.2751 11.8909C20.041 11.8909 19.7936 11.8958 19.54 11.9031C19.551 10.8205 19.551 9.69531 19.5424 8.55665C19.5315 7.23513 18.8012 6.20133 17.587 5.7917C17.281 5.68808 16.9238 5.63932 16.4629 5.63566C14.7574 5.62347 12.9751 5.62347 11.0159 5.63566C11.0245 4.63964 11.0233 3.629 11.0233 2.64151C11.0233 2.17947 11.022 1.71743 11.0233 1.25416C11.0233 0.839665 11.1305 0.732383 11.5414 0.732383C16.6153 0.731163 21.6917 0.731163 26.7681 0.732383C27.1619 0.732383 27.2704 0.840884 27.2704 1.23831C27.2728 4.62136 27.2728 8.00561 27.2704 11.3887C27.2704 11.8007 27.1716 11.897 26.7425 11.8982C26.3561 11.9007 25.9708 11.9007 25.5697 11.8995Z" fill="white"/>
<path d="M23.3902 2.711H17.4141V3.19864H23.3902V2.711Z" fill="white"/>
<path d="M12.6773 10.6998H5.01758V11.1875H12.6773V10.6998Z" fill="white"/>
<path d="M12.6773 13.1953H5.01758V13.683H12.6773V13.1953Z" fill="white"/>
<path d="M12.6773 15.6909H5.01758V16.1785H12.6773V15.6909Z" fill="white"/>
<path d="M23.3902 4.30313H19.5146V4.79078H23.3902V4.30313Z" fill="white"/>
</svg>
